<svg width="50" height="50" viewBox="0 0 50 50" fill="none" xmlns="http://www.w3.org/2000/svg">
<g clip-path="url(#clip0_30_35)">
<path d="M13.4034 39.5492V42.9682C13.4034 44.1936 14.4003 45.1905 15.6257 45.1905H34.3743C35.5997 45.1905 36.5966 44.1936 36.5966 42.9682V39.5492C36.5966 38.3254 35.5997 37.3296 34.3743 37.3296H15.6257C14.4003 37.3297 13.4034 38.3254 13.4034 39.5492ZM34.6435 39.5492V42.9682C34.6435 43.1141 34.5202 43.2374 34.3743 43.2374H15.6257C15.4773 43.2374 15.3566 43.1167 15.3566 42.9682V39.5492C15.3566 39.4048 15.4798 39.2827 15.6257 39.2827H34.3743C34.5202 39.2828 34.6435 39.4049 34.6435 39.5492Z" fill="#F24617"/>
<path d="M47.4124 27.7096H46.9219V23.5591C46.9219 23.557 46.9219 23.5554 46.9219 23.5533C46.9219 23.5521 46.9219 23.5507 46.9219 23.5494C46.9216 23.4593 46.9169 23.4104 46.9066 23.3912C46.8782 23.2274 46.8085 23.0687 46.694 22.932L44.4228 20.2202C45.1287 19.0905 45.0673 17.5871 44.1661 16.5113L43.2569 15.4281C42.718 14.7825 41.9571 14.3855 41.1145 14.3104C40.2697 14.2352 39.4487 14.4922 38.8019 15.0341C38.8016 15.0344 38.8012 15.0347 38.8008 15.0351C37.4657 16.157 37.2918 18.1552 38.4116 19.4878L39.32 20.5734C39.861 21.2192 40.6232 21.6159 41.466 21.6901C41.5612 21.6985 41.656 21.7027 41.7503 21.7027C42.1577 21.7027 42.5554 21.6248 42.9263 21.4753L44.9688 23.9141V27.7097H37.1156C37.0375 22.225 36.2122 19.5004 32.2654 17.6078L30.6982 16.0042C31.8528 14.839 32.6632 13.4043 32.6632 11.8932V9.51504V7.7626C32.6631 3.53613 29.2248 0.0976562 24.9985 0.0976562C20.7723 0.0976562 17.3342 3.53613 17.3342 7.7626V9.51494V11.8931C17.3342 13.4047 18.145 14.8396 19.3002 16.0051L17.7322 17.6075C13.7852 19.5002 12.9599 22.2248 12.8817 27.7096H5.02852V23.914L7.07109 21.4752C7.44209 21.6247 7.83994 21.7026 8.24756 21.7026C8.34316 21.7026 8.43926 21.6983 8.53564 21.6897C9.37842 21.6146 10.1394 21.2178 10.6768 20.5739L11.5869 19.4894C12.1282 18.8452 12.3857 18.0262 12.312 17.183C12.2382 16.3387 11.8416 15.5756 11.1953 15.0341C10.5495 14.4931 9.72969 14.236 8.88721 14.3102C8.04443 14.3844 7.28232 14.781 6.7418 15.4262L5.82939 16.5134C4.93262 17.5878 4.87178 19.0896 5.57539 20.2191L3.30313 22.9321C3.16523 23.0968 3.09189 23.2937 3.07842 23.4927C3.07695 23.5077 3.07598 23.5245 3.07559 23.5433C3.07549 23.5472 3.07529 23.5511 3.07529 23.555C3.07529 23.5564 3.0752 23.5576 3.0752 23.5592V27.7097H2.5874C1.16084 27.7096 0 28.8704 0 30.2973V31.9805C0 33.4073 1.16084 34.5682 2.5876 34.5682H3.7835L7.32939 48.4482C7.42031 48.8079 7.69717 49.9023 8.9627 49.9023H41.0372C42.2941 49.9023 42.5765 48.8118 42.6699 48.4506L46.2164 34.5683H47.4124C48.8392 34.5683 50 33.4074 50 31.9806V30.2974C50 28.8704 48.8392 27.7096 47.4124 27.7096ZM42.5193 19.469C42.2733 19.6752 41.9606 19.7728 41.6372 19.7444C41.3143 19.716 41.0229 19.5649 40.8174 19.3195L39.908 18.2327C39.4798 17.7231 39.5466 16.9596 40.0568 16.5304C40.303 16.3244 40.617 16.2265 40.9408 16.2557C41.2632 16.2844 41.5532 16.435 41.759 16.6815L42.6691 17.766C43.0974 18.2772 43.0302 19.0411 42.5193 19.469ZM7.32734 17.767L8.23867 16.6812C8.44453 16.4353 8.73584 16.2843 9.05869 16.2559C9.09541 16.2526 9.13193 16.251 9.16826 16.251C9.45195 16.251 9.72295 16.3486 9.94092 16.5312C10.187 16.7373 10.338 17.0293 10.3663 17.3532C10.3945 17.6762 10.2971 17.9886 10.0913 18.2334L9.179 19.3206C8.9748 19.5652 8.68467 19.7158 8.3623 19.7445C8.03809 19.7738 7.72412 19.6756 7.47881 19.4701C6.96914 19.0415 6.90186 18.2767 7.32734 17.767ZM24.9985 2.05078C28.1478 2.05078 30.7099 4.61309 30.7099 7.7626V8.49541C28.7556 8.32891 27.1445 7.70986 25.6996 7.15469C24.4029 6.65635 23.1394 6.1708 21.8899 6.1708C21.0344 6.1708 20.1854 6.39863 19.337 7.00605C19.7084 4.21279 22.1058 2.05078 24.9985 2.05078ZM19.2873 11.8931V9.82666C21.0269 7.45146 22.3036 7.94199 24.999 8.97783C26.5346 9.56787 28.4008 10.2843 30.7099 10.4539V11.8932C30.7099 14.2923 26.9959 16.8299 24.9985 16.8299C23.0013 16.8298 19.2873 14.2923 19.2873 11.8931ZM30.2854 18.3763L27.6022 20.8511L26.4627 18.5583C27.3529 18.3065 28.3043 17.8535 29.1879 17.2533L30.2854 18.3763ZM23.5344 18.5582L22.3949 20.851L19.7121 18.3766L20.8104 17.254C21.6938 17.8539 22.6446 18.3066 23.5344 18.5582ZM18.1419 19.5854L22.0278 23.1695C22.2098 23.3374 22.4468 23.4282 22.6899 23.4282C22.7488 23.4282 22.8081 23.4229 22.867 23.412C23.1693 23.3563 23.4277 23.1615 23.5646 22.8862L24.9986 20.0006L26.4328 22.8862C26.5695 23.1615 26.828 23.3563 27.1304 23.412C27.433 23.4678 27.7435 23.3777 27.9695 23.1695L31.8555 19.5854C34.3749 20.9243 35.0876 22.6933 35.1626 27.7096H14.8349C14.9099 22.6933 15.6226 20.9243 18.1419 19.5854ZM48.0469 31.9805C48.0469 32.3304 47.7623 32.615 47.4124 32.615H29.3806C28.8413 32.615 28.404 33.0523 28.404 33.5916C28.404 34.1309 28.8413 34.5682 29.3806 34.5682H44.2006L40.7822 47.9492L9.21777 47.9491L5.79932 34.5683H20.6083C21.1476 34.5683 21.5849 34.131 21.5849 33.5917C21.5849 33.0524 21.1476 32.6151 20.6083 32.6151H2.5876C2.24375 32.6151 1.95312 32.3245 1.95312 31.9806V30.2974C1.95312 29.9534 2.24375 29.6628 2.5876 29.6628H47.4124C47.7562 29.6628 48.0469 29.9534 48.0469 30.2974V31.9805Z" fill="#F24617"/>
<path d="M24.9958 34.5682H24.9986C25.5378 34.5682 25.9738 34.1309 25.9738 33.5917C25.9738 33.0524 25.5351 32.6151 24.9957 32.6151C24.4564 32.6151 24.0192 33.0524 24.0192 33.5917C24.0192 34.1309 24.4566 34.5682 24.9958 34.5682Z" fill="#F24617"/>
</g>
<defs>
<clipPath id="clip0_30_35">
<rect width="50" height="50" fill="white"/>
</clipPath>
</defs>
</svg>
