<svg width="50" height="50" viewBox="0 0 50 50" fill="none" xmlns="http://www.w3.org/2000/svg">
<g clip-path="url(#clip0_30_70)">
<path d="M48.3333 22.5H45.8333C44.9129 22.5 44.1667 23.2462 44.1667 24.1667H42.1517C42.6599 23.0026 42.6094 21.6703 42.0145 20.548C41.4197 19.4257 40.3453 18.6361 39.0967 18.4033C38.7262 16.4319 37.0059 15.0027 35 15C34.736 14.9997 34.4725 15.0248 34.2133 15.075C33.4319 13.9852 32.1744 13.3372 30.8333 13.3333C30.7625 13.3333 30.6967 13.3475 30.6267 13.3508C30.75 11.875 30.8333 10.4408 30.8333 9.16667C30.8333 4.73583 29.3008 0 25 0C20.6992 0 19.1667 4.73583 19.1667 9.16667C19.1667 10.4408 19.25 11.875 19.3733 13.3508C19.3033 13.3508 19.2375 13.3333 19.1667 13.3333C17.8256 13.3372 16.5681 13.9852 15.7867 15.075C15.5275 15.0248 15.264 14.9997 15 15C12.9941 15.0027 11.2738 16.4319 10.9033 18.4033C9.65466 18.6361 8.58035 19.4257 7.98546 20.548C7.39058 21.6703 7.34009 23.0026 7.84833 24.1667H5.83333C5.83333 23.2462 5.08714 22.5 4.16667 22.5H1.66667C0.746192 22.5 0 23.2462 0 24.1667V36.6667C0 37.5871 0.746192 38.3333 1.66667 38.3333H4.16667C4.98525 38.3305 5.68062 37.7337 5.8075 36.925L10 38.0992C9.99801 38.8799 10.3065 39.6293 10.8575 40.1823C11.4085 40.7354 12.1568 41.0466 12.9375 41.0475C12.9558 41.0475 12.9725 41.0425 12.99 41.0425C12.99 41.0558 12.9858 41.0692 12.9858 41.0825C12.9841 41.863 13.2925 42.6122 13.8433 43.1651C14.3941 43.7181 15.142 44.0295 15.9225 44.0308C15.9408 44.0308 15.9575 44.0258 15.975 44.0258V44.0658C15.9732 44.8463 16.2817 45.5955 16.8325 46.1485C17.3832 46.7014 18.1312 47.0128 18.9117 47.0142C18.93 47.0142 18.9467 47.0092 18.9642 47.0092V47.0492C18.9586 48.2412 19.6742 49.3183 20.7752 49.7752C21.8761 50.2321 23.1441 49.9782 23.9842 49.1325L24.975 48.1442C24.9825 48.1358 24.9883 48.1258 24.9958 48.1183L26.0167 49.1392C26.5658 49.691 27.3124 50.0008 28.0908 50H28.0992C29.7152 49.9904 31.0217 48.6803 31.0267 47.0642V47C31.7144 47.0258 32.388 46.8004 32.9217 46.3658C33.5669 45.8359 33.9582 45.0581 33.9992 44.2242C33.9992 44.1667 34.0033 44.1083 33.9992 44.05H34.03C35.6468 44.0482 36.9598 42.7434 36.9717 41.1267V41.0833H37.0117C38.6287 41.0746 39.9363 39.7637 39.9408 38.1467C39.9408 38.135 39.9408 38.1233 39.9367 38.1117L44.1867 36.9233C44.3131 37.7349 45.012 38.3333 45.8333 38.3333H48.3333C49.2538 38.3333 50 37.5871 50 36.6667V24.1667C50 23.2462 49.2538 22.5 48.3333 22.5ZM4.16667 36.6667H1.66667V24.1667H4.16667V36.6667ZM30.8333 15C31.7881 15.0019 32.6579 15.5487 33.0733 16.4083C33.2615 16.8003 33.7194 16.9817 34.125 16.825C34.4043 16.7182 34.701 16.6645 35 16.6667C36.3807 16.6667 37.5 17.786 37.5 19.1667C37.5 19.6269 37.8731 20 38.3333 20C39.3214 19.9955 40.2185 20.5761 40.6192 21.4793C41.0198 22.3825 40.8481 23.4372 40.1817 24.1667H37.1233C36.9294 24.1664 36.7415 24.099 36.5917 23.9758L35.3675 22.9617C35.2408 22.8558 35.1058 22.7608 34.9742 22.6633C34.9792 22.6083 35 22.555 35 22.4967V20.4833C34.9994 19.8868 34.6821 19.3354 34.1667 19.035L30.2717 16.8092C30.3422 16.2186 30.4089 15.6258 30.4717 15.0308C30.5913 15.0117 30.7122 15.0014 30.8333 15ZM25 17.5C24.5398 17.5 24.1667 17.8731 24.1667 18.3333V21.56C23.4672 21.2712 22.7356 21.0675 21.9875 20.9533C21.3356 17.0552 20.95 13.1172 20.8333 9.16667C20.8381 8.32947 20.9055 7.4938 21.035 6.66667H28.965C29.0945 7.4938 29.1619 8.32947 29.1667 9.16667C29.05 13.1209 28.6638 17.0625 28.0108 20.9642C27.2619 21.0842 26.5306 21.2958 25.8333 21.5942V18.3333C25.8333 17.8731 25.4602 17.5 25 17.5ZM16.6667 21.6925V20.4817L19.965 18.5975C20.0711 19.3808 20.1786 20.1308 20.2875 20.8475C19.0363 20.8848 17.8052 21.1721 16.6667 21.6925ZM30.04 18.5983L33.3333 20.4833L33.325 21.6792C32.1903 21.1613 30.9627 20.8779 29.7158 20.8458C29.8242 20.1292 29.9317 19.38 30.0383 18.5983H30.04ZM25 1.66667C27 1.66667 28.0442 3.26083 28.5833 5H21.4167C21.9558 3.26083 23 1.66667 25 1.66667ZM9.16667 22.5C9.16667 21.1193 10.286 20 11.6667 20C12.1269 20 12.5 19.6269 12.5 19.1667C12.5 17.786 13.6193 16.6667 15 16.6667C15.2991 16.665 15.5958 16.7193 15.875 16.8267C16.2808 16.9839 16.7393 16.8024 16.9275 16.41C17.3911 15.4213 18.4535 14.8593 19.5317 15.0325C19.5944 15.6275 19.6611 16.2203 19.7317 16.8108L15.8333 19.0375C15.3184 19.3372 15.0012 19.8876 15 20.4833V22.5C15.0062 22.5561 15.0156 22.6117 15.0283 22.6667C14.8825 22.7733 14.735 22.8783 14.595 22.995L13.4167 23.975C13.2666 24.0985 13.0785 24.1662 12.8842 24.1667H9.81833C9.40194 23.7111 9.16969 23.1171 9.16667 22.5ZM13.84 39.005C13.3348 39.4958 12.5298 39.492 12.0292 38.9967C11.5452 38.4941 11.5474 37.6982 12.0342 37.1983L13.0267 36.2058C13.5275 35.7068 14.3375 35.7068 14.8383 36.2058C15.0801 36.4434 15.2164 36.7681 15.2164 37.1071C15.2164 37.4461 15.0801 37.7708 14.8383 38.0083L13.8483 39L13.84 39.005ZM16.8258 41.9883C16.5866 42.2308 16.2597 42.3665 15.9191 42.365C15.5785 42.3634 15.2529 42.2246 15.0158 41.98C14.7784 41.7427 14.6475 41.419 14.6533 41.0833C14.6501 40.7454 14.7825 40.4204 15.0208 40.1808L16.0117 39.1917C16.2505 38.9523 16.5751 38.8182 16.9133 38.8192C17.2536 38.8189 17.58 38.9538 17.8208 39.1942C18.0626 39.4317 18.1989 39.7565 18.1989 40.0954C18.1989 40.4344 18.0626 40.7591 17.8208 40.9967L16.8333 41.98L16.8258 41.9883ZM19.8117 44.9717C19.5724 45.2141 19.2455 45.3499 18.9049 45.3483C18.5643 45.3467 18.2387 45.208 18.0017 44.9633C17.7642 44.726 17.6334 44.4024 17.6392 44.0667C17.636 43.7288 17.7683 43.4037 18.0067 43.1642L19 42.175C19.239 41.9357 19.5635 41.8017 19.9017 41.8025C20.2419 41.8024 20.5682 41.9373 20.8092 42.1775C21.051 42.415 21.1872 42.7398 21.1872 43.0788C21.1872 43.4177 21.051 43.7425 20.8092 43.98L19.8217 44.9667L19.8117 44.9717ZM23.7933 46.9608L22.7933 47.955C22.2886 48.4461 21.4835 48.4424 20.9833 47.9467C20.4979 47.4444 20.5002 46.6471 20.9883 46.1475L21.9833 45.1583C22.4836 44.6595 23.2931 44.6595 23.7933 45.1583C24.035 45.3961 24.1711 45.721 24.1711 46.06C24.1711 46.399 24.035 46.723 23.7933 46.9608ZM37.9 39.0442C37.6658 39.2829 37.3453 39.4171 37.0108 39.4167C36.6755 39.4171 36.3537 39.2847 36.1158 39.0483L36.1092 39.0425L35.1258 38.0583C34.9166 37.8417 34.6068 37.7548 34.3154 37.8311C34.0241 37.9074 33.7965 38.1349 33.7202 38.4262C33.644 38.7176 33.7309 39.0274 33.9475 39.2367L34.9308 40.2208L34.94 40.2292C35.1789 40.4659 35.3128 40.7887 35.3117 41.125C35.3108 41.4616 35.1734 41.7833 34.9308 42.0167C34.4322 42.4901 33.6509 42.4926 33.1492 42.0225L33.1433 42.0167L32.1508 41.025C31.8252 40.6996 31.2975 40.6998 30.9721 41.0254C30.6467 41.351 30.6469 41.8788 30.9725 42.2042L31.965 43.195L31.9733 43.2042C32.2225 43.4538 32.3534 43.7979 32.3333 44.15C32.3168 44.5136 32.1451 44.8525 31.8617 45.0808C31.312 45.4838 30.5478 45.4122 30.0825 44.9142L29.1733 44C28.8463 43.6842 28.3266 43.6887 28.0052 44.0102C27.6837 44.3316 27.6792 44.8514 27.995 45.1783L28.9892 46.1733C29.348 46.5363 29.4543 47.079 29.2589 47.5505C29.0635 48.0221 28.6046 48.3305 28.0942 48.3333C27.7558 48.3337 27.4312 48.199 27.1925 47.9592L25.7933 46.5592C25.9442 45.6968 25.702 44.812 25.1328 44.1468C24.5636 43.4815 23.727 43.1053 22.8517 43.1208C22.8517 43.105 22.8567 43.0908 22.8567 43.075C22.8552 42.287 22.5379 41.5325 21.9758 40.9803C21.4137 40.428 20.6537 40.1242 19.8658 40.1367C19.8658 40.1217 19.8708 40.1075 19.8708 40.0917C19.8696 39.3037 19.5524 38.5491 18.9902 37.997C18.428 37.4448 17.6679 37.1412 16.88 37.1542C16.88 37.1383 16.885 37.1242 16.885 37.1083C16.8869 36.3255 16.574 35.5748 16.0167 35.025C14.8648 33.8774 13.0018 33.8774 11.85 35.025L10.8625 36.0125C10.7149 36.1593 10.5844 36.3223 10.4733 36.4983L5.83333 35.2017V25.8333H12.8808C13.4635 25.8328 14.0279 25.6292 14.4767 25.2575L15.6592 24.2767C17.7327 22.5551 20.555 22.0422 23.1017 22.9242L18.7942 25.0775C17.0303 25.9886 16.3262 28.1481 17.214 29.9238C18.1019 31.6995 20.252 32.4319 22.0392 31.5675L28.4417 28.3667C28.7703 28.2025 29.1678 28.2729 29.42 28.54L37.9058 37.2583C38.1453 37.4943 38.2797 37.8167 38.2786 38.1529C38.2775 38.4891 38.141 38.8098 37.9 39.0442ZM39.0892 36.0833L30.6183 27.3817C29.8626 26.5865 28.6749 26.3809 27.6958 26.8758L21.2942 30.0767C20.3287 30.54 19.1701 30.1435 18.691 29.1858C18.2119 28.228 18.5894 27.063 19.5392 26.5683L26.075 23.3008C28.7627 21.9571 31.9903 22.3271 34.3042 24.2442L35.5292 25.2592C35.978 25.6295 36.5415 25.8324 37.1233 25.8333H44.1667V35.2008L39.4492 36.5192C39.3438 36.3624 39.2232 36.2164 39.0892 36.0833ZM45.8333 36.6667V24.1667H48.3333V36.6667H45.8333Z" fill="#F24617"/>
<path d="M27.5 10.8334C27.5 9.45266 26.3807 8.33337 25 8.33337C23.6193 8.33337 22.5 9.45266 22.5 10.8334C22.5 12.2141 23.6193 13.3334 25 13.3334C26.3807 13.3334 27.5 12.2141 27.5 10.8334ZM25 11.6667C24.5398 11.6667 24.1667 11.2936 24.1667 10.8334C24.1667 10.3731 24.5398 10 25 10C25.4602 10 25.8333 10.3731 25.8333 10.8334C25.8333 11.2936 25.4602 11.6667 25 11.6667Z" fill="#F24617"/>
</g>
<defs>
<clipPath id="clip0_30_70">
<rect width="50" height="50" fill="white"/>
</clipPath>
</defs>
</svg>
