<svg width="40" height="40" viewBox="0 0 40 40" fill="none" xmlns="http://www.w3.org/2000/svg">
<g clip-path="url(#clip0_100_69)">
<path d="M23.8838 12.7817L25.5209 11.1446L28.9022 14.526L27.2651 16.1631L23.8838 12.7817Z" fill="#F24617"/>
<path d="M20.6094 16.0559L22.2465 14.4188L25.6278 17.8002L23.9907 19.4373L20.6094 16.0559Z" fill="#F24617"/>
<path d="M29.4627 5.18964C29.2756 5.2787 29.1923 5.4976 29.2731 5.68792L29.2883 5.72378L29.681 6.99174C29.66 7.01065 29.639 7.02948 29.6186 7.04979L27.1626 9.50573L30.5445 12.8875L33.0005 10.4316C33.028 10.4041 33.0541 10.3759 33.079 10.3472L34.3484 10.7404C34.5302 10.7967 34.7291 10.7096 34.8109 10.5376C36.4045 7.1894 39.6355 5.63643 39.7769 5.56987C39.8714 5.52604 39.9452 5.4444 39.9793 5.34581C40.0134 5.24737 40.0058 5.1376 39.9586 5.04471L38.3318 1.84659C38.3134 1.81034 38.2894 1.77737 38.2605 1.74862C38.2318 1.71987 38.1988 1.69588 38.1627 1.67753L35.01 0.0738536L34.9831 0.0572911C34.9025 0.00760357 34.8067 -0.0105995 34.7133 0.00596295C34.5892 0.0279942 34.4836 0.1094 34.4306 0.223775C34.4151 0.257213 32.8436 3.58057 29.4627 5.18964Z" fill="#F24617"/>
<path d="M20.8805 30.2373C20.8369 29.5352 21.2889 28.908 21.9551 28.746C23.1293 28.4604 24.2015 27.8536 25.0558 26.9912C25.6632 26.378 26.1357 25.6623 26.4604 24.864C26.6361 24.4322 26.5354 23.9379 26.2067 23.6093C26.2017 23.6043 26.1967 23.5993 26.1915 23.5944C25.8508 23.2659 25.3446 23.1779 24.9129 23.3721C23.736 23.9015 22.1471 23.6119 20.7476 22.6839L22.3574 21.0742L18.9755 17.6924L17.956 18.7119C17.7316 17.5912 17.9317 16.5384 18.6132 15.857C18.809 15.6611 19.0394 15.5004 19.2979 15.3792C19.7457 15.1694 20.0107 14.6984 19.9576 14.2067C19.9046 13.7151 19.5452 13.3114 19.063 13.2019C16.8542 12.7002 14.5826 13.3463 12.9863 14.9302C12.1221 15.7877 11.5153 16.8639 11.2319 18.0425C11.0718 18.7079 10.4449 19.1604 9.74112 19.1183C7.06534 18.9582 4.4512 19.946 2.56886 21.8284C-0.856611 25.2539 -0.856611 30.8275 2.56886 34.2529L5.74706 37.431C9.17253 40.8565 14.7461 40.8565 18.1716 37.431C20.0599 35.5427 21.0471 32.9208 20.8805 30.2373ZM11.8375 30.6026L9.39737 28.1625C8.94526 27.7104 8.94526 26.9773 9.39737 26.5251C9.84948 26.073 10.5825 26.073 11.0347 26.5251L13.4749 28.9653C13.927 29.4174 13.927 30.1504 13.4749 30.6026C13.0227 31.0547 12.2896 31.0547 11.8375 30.6026ZM15.4978 26.9424L13.0576 24.5022C12.6055 24.0501 12.6055 23.3171 13.0576 22.8649C13.5097 22.4128 14.2428 22.4128 14.695 22.8649L17.1351 25.305C17.5872 25.7572 17.5872 26.4902 17.1351 26.9424C16.683 27.3945 15.9499 27.3945 15.4978 26.9424Z" fill="#F24617"/>
</g>
<defs>
<clipPath id="clip0_100_69">
<rect width="40" height="40" fill="white"/>
</clipPath>
</defs>
</svg>
