<svg width="60" height="60" viewBox="0 0 60 60" fill="none" xmlns="http://www.w3.org/2000/svg">
<path fill-rule="evenodd" clip-rule="evenodd" d="M33.431 0.275487C33.1798 0.545008 33.1751 0.616154 33.1751 4.17994V7.80989L33.4852 8.05557C33.8931 8.37881 34.2642 8.36624 34.6693 8.01538L34.9996 7.72937L35.0344 4.36918C35.0535 2.52119 35.039 0.887691 35.0019 0.739235C34.8217 0.0156879 33.9212 -0.25004 33.431 0.275487ZM25.2886 3.94895C24.7408 4.22808 24.6617 4.61262 24.9325 5.68134C25.6537 8.52667 25.9495 12.5306 25.6528 15.43C25.0709 21.1149 22.8918 26.7683 18.9513 32.816C18.0249 34.2377 17.6501 34.7224 17.5198 34.667C16.3237 34.1588 15.7936 34.1703 15.1467 34.7187C14.544 35.2295 12.7159 37.7779 12.5756 38.3026C12.4261 38.8621 12.568 39.5308 12.9366 40.0028C13.0901 40.1995 13.1437 40.3744 13.0832 40.4814C13.0309 40.5743 12.1424 41.5675 11.109 42.6887L9.22993 44.7272L8.38031 44.647C4.5636 44.2866 0.944767 46.9753 0.142582 50.7673C-0.234204 52.5483 0.150822 54.7514 1.11968 56.358C1.64419 57.2278 2.81186 58.401 3.6616 58.9119C5.86793 60.2384 8.81983 60.3629 11.1041 59.226C13.8555 57.8564 15.5469 54.931 15.3584 51.8678L15.2922 50.7906L17.0829 49.1254C18.0676 48.2095 19.043 47.3177 19.2501 47.1436L19.6269 46.8272L20.0741 47.122C21.1007 47.7987 21.5983 47.6985 23.3126 46.47C24.905 45.3287 25.4663 44.7671 25.6312 44.1504C25.7572 43.6792 25.635 42.9151 25.3839 42.6045C25.3204 42.5258 25.3002 42.4095 25.3393 42.3458C25.3783 42.2822 26.0848 41.781 26.9091 41.232C32.1598 37.7352 37.3402 35.5411 42.5329 34.6147C43.5566 34.4321 44.6474 34.3456 46.4957 34.3008C49.3512 34.2315 50.8517 34.3496 53.009 34.8134C53.7859 34.9805 54.6912 35.1458 55.0206 35.1808C55.5699 35.239 55.6411 35.2171 55.874 34.9187C56.4367 34.1982 57.3076 35.1448 41.3322 19.1127C33.188 10.9396 26.3656 4.14982 26.1714 4.02449C25.7567 3.75674 25.679 3.74998 25.2886 3.94895ZM40.1341 5.42593C39.9466 5.58328 39.6733 6.43465 39.0028 8.94951C38.5167 10.7733 38.1188 12.3632 38.1188 12.4825C38.1188 12.8218 38.6501 13.2815 39.0421 13.2815C39.7583 13.2815 39.8479 13.0921 40.7808 9.60322C41.2589 7.8151 41.6501 6.21303 41.6501 6.04311C41.6501 5.36285 40.6798 4.96787 40.1341 5.42593ZM41.5003 21.9623C47.3445 27.8128 52.1262 32.6173 52.1262 32.639C52.1262 32.6607 51.6098 32.608 50.9785 32.5219C49.6821 32.3454 45.2962 32.3134 44.122 32.4719L43.3569 32.5752L36.5886 25.842C32.8661 22.1387 29.2782 18.5579 28.6156 17.8846L27.411 16.6606L27.526 15.6528C27.7449 13.7337 27.6424 9.68172 27.3354 8.12352C27.2501 7.69024 26.972 7.41871 41.5003 21.9623ZM44.9924 13.6523C43.6192 15.0303 42.4734 16.2757 42.4459 16.42C42.3283 17.0398 42.7557 17.5404 43.4077 17.5465C43.778 17.5499 44.0198 17.3411 46.321 15.0298C48.5725 12.7682 48.8303 12.4692 48.8303 12.1193C48.8303 11.5984 48.3849 11.1472 47.8709 11.1472C47.5313 11.1472 47.2138 11.4235 44.9924 13.6523ZM29.7662 14.6814C29.183 15.269 29.3202 15.6643 30.5046 16.8092C31.114 17.3981 31.3475 17.5503 31.6424 17.5503C32.149 17.5503 32.4223 17.3808 32.5606 16.9812C32.7286 16.496 32.5099 16.0811 31.6279 15.2114C30.6806 14.2772 30.2805 14.1634 29.7662 14.6814ZM33.4014 18.3712C33.0156 18.7599 32.982 18.9591 33.2243 19.4238C33.4613 19.8786 35.9107 22.1476 36.2601 22.2359C36.6891 22.3444 37.2949 21.8023 37.2949 21.3097C37.2949 20.9951 37.0797 20.7235 35.8478 19.4823C34.2247 17.8474 34.0156 17.7524 33.4014 18.3712ZM50.7725 19.0825C49.154 19.524 47.6856 19.9207 47.5094 19.9641C46.4207 20.2328 46.4999 21.8191 47.6019 21.8189C47.9787 21.8189 54.0258 20.222 54.3871 20.0272C55.084 19.6515 54.8274 18.5046 54.0095 18.3393C53.842 18.3055 52.4472 18.6257 50.7725 19.0825ZM34.0665 25.9889C37.849 29.7823 40.9192 32.9109 40.8891 32.9411C40.8591 32.9715 40.1572 33.1722 39.3295 33.3872C34.701 34.5897 30.1004 36.7659 25.3619 39.9943L23.8543 41.0214L21.4521 38.6344C20.1309 37.3214 19.05 36.2058 19.05 36.1553C19.05 36.1047 19.5453 35.3261 20.1507 34.4252C22.2741 31.2655 23.9945 28.0441 25.2114 24.949C25.8669 23.2818 26.7144 20.5521 26.8734 19.5957C26.9196 19.3185 27.0094 19.0917 27.0732 19.0917C27.137 19.0917 30.284 22.1955 34.0665 25.9889ZM38.2086 22.8346C37.8608 23.0247 37.7003 23.4372 37.807 23.8659C37.8439 24.0136 38.5034 24.7606 39.2726 25.526C40.8001 27.0458 41.0166 27.1493 41.6043 26.64C41.8316 26.4431 41.9247 26.2497 41.9247 25.9745C41.9247 25.6353 41.7398 25.4017 40.4541 24.1178C39.5727 23.2376 38.8927 22.6509 38.757 22.6537C38.6326 22.6564 38.3858 22.7377 38.2086 22.8346ZM51.998 25.2424C51.6301 25.5424 51.6252 26.2286 51.9881 26.5942C52.2478 26.8559 52.2846 26.8584 55.8473 26.8584H59.4444L59.7285 26.5257C60.077 26.1177 60.0895 25.7438 59.7687 25.333L59.5248 25.0205H55.8973C52.5286 25.0205 52.2506 25.0363 51.998 25.2424ZM42.699 27.6139C42.5029 27.7738 42.427 27.959 42.427 28.2772C42.427 28.6726 42.5256 28.816 43.3765 29.6561C44.4062 30.6726 44.6814 30.7779 45.2111 30.3583C45.5986 30.0512 45.7021 29.6118 45.4858 29.1905C45.3915 29.0068 44.9647 28.527 44.5374 28.1243C43.6786 27.3151 43.221 27.1881 42.699 27.6139ZM20.1374 39.9314L23.8718 43.6961L22.552 44.6745L21.2322 45.6528L17.8641 42.303C16.0117 40.4606 14.4879 38.8795 14.4777 38.7896C14.4601 38.6318 16.2095 36.1666 16.3392 36.1666C16.3743 36.1666 18.0834 37.8608 20.1374 39.9314ZM16.4296 43.5465C17.4176 44.5403 18.2261 45.3856 18.2261 45.425C18.2261 45.4643 17.4122 46.2487 16.4175 47.1681L14.6088 48.8396L14.0501 48.016C13.4264 47.0964 12.5707 46.269 11.7608 45.8022C11.4646 45.6315 11.201 45.4754 11.1748 45.4551C11.1486 45.4349 11.5725 44.9509 12.1167 44.3794C12.6609 43.808 13.42 42.9802 13.8037 42.54C14.1874 42.0999 14.5308 41.7396 14.5672 41.7396C14.6035 41.7396 15.4415 42.5527 16.4296 43.5465ZM9.56493 46.834C10.509 47.1627 11.2789 47.6807 11.9924 48.4671C15.3613 52.1803 12.7175 58.1031 7.69113 58.1031C4.80632 58.1031 2.44602 56.1087 1.96142 53.2617C1.44009 50.1996 3.47056 47.3026 6.63175 46.5982C7.33094 46.4423 8.77346 46.5583 9.56493 46.834Z" fill="white"/>
</svg>
