<svg width="60" height="60" viewBox="0 0 60 60" fill="none" xmlns="http://www.w3.org/2000/svg">
<path fill-rule="evenodd" clip-rule="evenodd" d="M43.3072 0.215266C42.729 0.4779 42.2483 1.02744 42.0863 1.61063C42.0187 1.85438 41.965 3.28433 41.9646 4.85275L41.9639 7.65871L42.7845 9.14822L43.605 10.6376V17.2791C43.605 23.4994 43.592 23.9251 43.3999 23.9911C41.9811 24.4787 40.9643 25.0365 39.8458 25.9411L39.1506 26.5034V25.091V23.6788H39.7868C40.3346 23.6788 40.4568 23.6358 40.666 23.3698C40.7996 23.2 40.909 22.9914 40.909 22.9064C40.909 22.583 40.6322 22.1655 40.3369 22.0433C40.1218 21.9543 36.6307 21.9256 28.6782 21.9475L17.3268 21.9787L17.1027 22.2555C16.5624 22.923 17.0232 23.6788 17.9705 23.6788H18.5197V27.0073V30.3359L17.4355 31.438C16.1388 32.7561 15.1967 34.0477 14.4223 35.569C11.5833 41.1463 12.0985 47.8152 15.7629 52.9238L16.416 53.8342L15.0062 56.253C14.2057 57.6267 13.5965 58.801 13.5965 58.9708C13.5965 59.4795 13.9036 59.791 14.4055 59.791C14.6805 59.791 14.9192 59.7129 15.0327 59.5858C15.1334 59.4729 15.7533 58.4573 16.4105 57.3288C17.0676 56.2003 17.6234 55.2579 17.6456 55.2347C17.6678 55.2114 18.045 55.4976 18.4839 55.8707C21.5212 58.4528 25.2282 59.8023 29.284 59.8023C31.3723 59.8023 33.3753 59.4734 34.8275 58.8923C35.5577 58.6001 35.7508 57.9413 35.2455 57.4664C34.9117 57.1528 34.6441 57.1482 33.6539 57.439C31.5301 58.0627 28.779 58.2265 26.6671 57.8548C22.1348 57.0572 18.0655 54.0377 16.0035 49.9422C14.861 47.6732 14.3972 45.7239 14.3851 43.1418C14.3659 39.017 15.7974 35.6113 18.7963 32.647C20.6681 30.797 22.3985 29.7102 24.6679 28.9595C26.4142 28.3818 27.6858 28.2147 29.773 28.289C31.6285 28.355 32.6369 28.5341 34.2386 29.0825C34.8473 29.2909 36.5126 30.0493 36.6686 30.1891C36.6896 30.2079 36.5651 30.7893 36.392 31.4809C36.1017 32.6401 36.0825 32.8631 36.1457 34.3347C36.1834 35.2128 36.2479 36.2846 36.289 36.7167C36.3522 37.3798 36.3249 37.5808 36.114 38.0064C35.6042 39.0349 35.6636 39.0374 34.5655 37.9413C33.7698 37.1471 33.3929 36.8702 32.5863 36.487C31.2693 35.8615 30.5388 35.6976 29.1282 35.7109C26.5188 35.7358 24.2428 37.0735 22.8239 39.4164C22.2306 40.3959 21.9163 41.4537 21.8362 42.7414C21.5625 47.1357 25.2867 50.8814 29.6557 50.6062C30.7523 50.5371 31.9909 50.1997 32.8506 49.7359C33.1571 49.5706 33.4245 49.457 33.4448 49.4835C33.4651 49.5101 33.574 49.8748 33.6869 50.2939C34.4235 53.03 36.5765 56.0116 39.0079 57.6631C41.562 59.3981 44.8504 60.2439 47.8549 59.9387C55.5483 59.1573 60.9997 52.1606 59.8458 44.5488C59.536 42.5051 58.8533 40.7817 57.6202 38.9308C57.2587 38.3881 56.931 37.8166 56.8919 37.6609C56.8528 37.5052 56.8556 36.9996 56.898 36.5373C57.0879 34.4702 57.1103 33.2477 56.9739 32.4016C56.3829 28.738 53.8589 25.5716 50.4817 24.2575L49.6419 23.9306L49.6117 17.254L49.5814 10.5773L50.3736 9.18457L51.1658 7.79179V4.80198C51.1658 3.15759 51.1263 1.67113 51.0779 1.49877C50.9459 1.02814 50.4136 0.45703 49.8812 0.215266C49.4637 0.0255599 49.0734 0 46.5942 0C44.1149 0 43.7246 0.0255599 43.3072 0.215266ZM49.3448 1.98031C49.4174 2.1162 49.4661 3.20366 49.4661 4.69306V7.17905L48.7931 8.39408L48.1203 9.60912H46.5776H45.035L44.3787 8.4166L43.7223 7.22407V4.62951C43.7223 2.76786 43.762 1.9952 43.8629 1.89425C43.9639 1.7933 44.7399 1.75355 46.6135 1.75355C49.0739 1.75355 49.2304 1.76656 49.3448 1.98031ZM1.57475 8.77502C0.65797 9.1916 -0.00268786 10.2603 8.22173e-06 11.3228C0.00129765 11.8592 0.436656 12.8429 0.834622 13.2087C1.28733 13.6248 1.97647 13.8645 5.52979 14.8407L8.89204 15.7646L8.9292 18.3839C8.96589 20.9744 8.96929 21.0057 9.243 21.2271C9.57813 21.4983 10.0532 21.5153 10.4054 21.2685C10.6602 21.0901 10.6659 21.0331 10.6659 18.6891C10.6659 17.3708 10.6934 16.2922 10.7269 16.2922C10.7603 16.2922 12.21 16.6879 13.9481 17.1716C16.1397 17.7814 17.3083 18.0509 17.7602 18.0509C19.7196 18.0509 20.9597 16.044 20.1178 14.2356C19.7975 13.5473 19.3179 13.1059 18.6122 12.8495C18.3357 12.749 14.7591 11.7414 10.6642 10.6104C5.54362 9.19606 3.03638 8.55471 2.63455 8.55647C2.31313 8.55788 1.83627 8.65625 1.57475 8.77502ZM10.4222 12.3772C14.5213 13.5126 18.0137 14.5132 18.1832 14.6006C18.9822 15.0123 18.6554 16.2922 17.7512 16.2922C17.4246 16.2922 12.3445 14.9216 3.39824 12.4198C2.06685 12.0475 1.75715 11.8233 1.75715 11.2323C1.75715 10.7926 2.22369 10.3126 2.65108 10.3126C2.82621 10.3126 6.32326 11.2417 10.4222 12.3772ZM47.825 13.0093V14.6508H46.5942H45.3634V13.0093V11.3678H46.5942H47.825V13.0093ZM47.7996 17.7871L47.8327 19.1061H46.598H45.3634V17.7537V16.4013L46.5649 16.4347L47.7664 16.4681L47.7996 17.7871ZM47.7996 22.2425L47.8327 23.5615H46.598H45.3634V22.2091V20.8566L46.5649 20.8901L47.7664 20.9235L47.7996 22.2425ZM24.498 25.416V27.1534L23.8272 27.3649C23.4581 27.4812 22.5087 27.9054 21.7172 28.3075L20.2781 29.0385V26.3587V23.6788H22.388H24.498V25.416ZM31.297 25.1151L31.2971 26.5513H29.3921C28.3444 26.5513 27.2102 26.5927 26.8717 26.6433L26.2563 26.7353V25.207V23.6788H28.7766H31.2968L31.297 25.1151ZM37.3923 26.0949C37.3923 27.9831 37.3603 28.4973 37.2458 28.4484C37.1653 28.4139 36.6245 28.1732 36.0443 27.9135C35.464 27.6538 34.5545 27.3203 34.0232 27.1722L33.0569 26.9031L33.0561 25.2909L33.0551 23.6788H35.2237H37.3923V26.0949ZM9.54824 23.9087C8.93025 24.1565 8.96624 23.0501 8.96624 41.8216V59.225L9.29516 59.508C9.69805 59.8546 9.955 59.8643 10.3571 59.5479L10.6659 59.305V41.8031C10.6659 25.2816 10.6545 24.2913 10.4608 24.1212C10.1805 23.8751 9.83379 23.7943 9.54824 23.9087ZM47.7996 26.6979L47.8327 28.0169H46.598H45.3634V26.7468C45.3634 26.0481 45.4003 25.4396 45.4454 25.3945C45.4907 25.3493 46.0313 25.3273 46.6469 25.3456L47.7664 25.3789L47.7996 26.6979ZM43.605 31.5267V37.2642L42.982 37.8874C42.6156 38.254 42.1932 38.8474 41.9563 39.3288C41.5682 40.1176 41.5537 40.1959 41.5537 41.4979C41.5537 42.7745 41.5743 42.8922 41.9289 43.6412C42.364 44.5599 43.2712 45.5738 44.008 45.9648C44.4405 46.1941 44.5691 46.2159 44.8192 46.102C45.2421 45.9092 45.5075 45.4591 45.4152 45.0911C45.371 44.9152 45.1038 44.6188 44.7787 44.3851C43.715 43.6208 43.2673 42.7786 43.2585 41.5259C43.2473 39.9177 44.2182 38.6805 45.8121 38.272C46.9349 37.9844 48.0226 38.2878 48.9193 39.139C49.6702 39.852 49.8733 40.3539 49.875 41.5004C49.8762 42.4012 49.8412 42.559 49.5111 43.1418C49.2806 43.5487 48.8914 43.9847 48.4561 44.3232C47.8733 44.7766 47.7609 44.9243 47.7307 45.277C47.702 45.6139 47.7559 45.7421 48.0103 45.9423C48.4551 46.2922 48.7496 46.2535 49.4685 45.7506C50.8459 44.7874 51.571 43.4609 51.6639 41.7349C51.7472 40.1843 51.2706 38.9813 50.1252 37.8519L49.5811 37.3154L49.6114 31.5444L49.6419 25.7734L50.5797 26.2476C52.6387 27.2886 54.1888 29.1185 54.931 31.3843C55.229 32.2934 55.2677 32.5781 55.2625 33.8207C55.2594 34.5945 55.2124 35.766 55.158 36.424C55.0327 37.9419 55.1545 38.4011 56.035 39.731C57.2151 41.5134 57.7686 42.8417 58.0856 44.6521C58.6873 48.0885 57.592 51.8156 55.2144 54.4222C52.8773 56.9842 49.4403 58.4134 46.0667 58.2259C39.9956 57.8886 35.2794 53.2184 34.9685 47.2358C34.8264 44.4992 35.4756 42.1673 37.0105 39.9018C37.9451 38.5224 38.0324 38.2756 38.0204 37.045C38.0144 36.4324 37.9698 35.2894 37.9212 34.5053C37.8114 32.7295 38.0059 31.7061 38.742 30.186C39.5873 28.4404 40.8119 27.1782 42.55 26.2606C43.0336 26.0053 43.4687 25.7949 43.5171 25.7929C43.5655 25.7909 43.605 28.3711 43.605 31.5267ZM47.7664 31.1826V32.531H46.5942H45.422L45.3883 31.3078C45.3698 30.6351 45.3821 30.0132 45.4156 29.9258C45.4623 29.804 45.7429 29.7749 46.6215 29.8007L47.7664 29.8343V31.1826ZM47.825 35.3889V36.4294H46.5942H45.3634V35.3889V34.3483H46.5942H47.825V35.3889ZM31.1618 37.7727C32.4195 38.2414 33.4379 39.0485 34.1296 40.1248L34.4889 40.6838L34.2554 41.2387C33.577 42.8505 33.1724 44.7684 33.1724 46.3711C33.1724 47.3156 33.1624 47.3503 32.8039 47.6519C31.9669 48.3565 30.4806 48.887 29.3438 48.887C25.624 48.887 22.8181 45.3376 23.7397 41.7984C24.5946 38.5156 28.0809 36.6246 31.1618 37.7727ZM42.4914 50.73C42.0714 50.8323 41.8467 51.1299 41.8467 51.5836C41.8467 52.4203 41.7563 52.4044 46.5155 52.4044C50.5993 52.4044 50.7642 52.3957 50.99 52.1699C51.4361 51.7236 51.2437 50.9915 50.6233 50.7752C50.2544 50.6466 42.9994 50.6063 42.4914 50.73Z" fill="white"/>
</svg>
