<svg width="60" height="60" viewBox="0 0 60 60" fill="none" xmlns="http://www.w3.org/2000/svg">
<path fill-rule="evenodd" clip-rule="evenodd" d="M1.16525 0.217383C0.942301 0.337031 0.600257 0.631758 0.405205 0.872461L0.0506182 1.31004L0.0136943 3.35613C-0.0205335 5.25305 -0.00482623 5.44031 0.228908 5.92301C0.532035 6.54902 1.0124 6.91605 1.63858 6.99996L2.10195 7.06207V20.9156V34.7691L1.62311 34.9849C1.00466 35.2638 0.402626 35.973 0.157053 36.7122C-0.305492 38.1043 0.370039 39.6804 1.72099 40.361L2.10195 40.5529V46.7454V52.9379L1.63858 53C1.0124 53.0839 0.532035 53.451 0.228908 54.077C-0.00482623 54.5597 -0.0205335 54.747 0.0136943 56.6439L0.0506182 58.69L0.405205 59.1275C0.600257 59.3682 0.942301 59.663 1.16525 59.7826C1.55711 59.9926 2.5339 60 30 60C57.4661 60 58.4429 59.9926 58.8348 59.7826C59.0577 59.663 59.3997 59.3682 59.5948 59.1275L59.9494 58.69L59.9863 56.6439C60.0205 54.747 60.0048 54.5597 59.7711 54.077C59.468 53.451 58.9876 53.0839 58.3614 53L57.8981 52.9379V46.7448V40.5517L58.3376 40.3252C59.6497 39.6491 60.3001 38.088 59.8429 36.7122C59.5974 35.9728 58.9953 35.2637 58.3764 34.9847L57.8971 34.7687L57.9269 20.9345L57.9567 7.10027L58.4084 7.00652C59.0428 6.87469 59.4777 6.52898 59.7711 5.92301C60.0048 5.44031 60.0205 5.25305 59.9863 3.35613L59.9494 1.31004L59.5948 0.872461C59.3997 0.631758 59.0577 0.337031 58.8348 0.217383C58.4429 0.00738281 57.4661 0 30 0C2.5339 0 1.55711 0.00738281 1.16525 0.217383ZM58.2239 3.45609C58.2526 4.89539 58.232 5.11371 58.055 5.2432C57.7904 5.43656 2.33791 5.46234 1.97699 5.26934C1.76963 5.15836 1.75029 5.00977 1.75029 3.53098C1.75029 2.64176 1.78557 1.87875 1.82871 1.83574C1.87185 1.79262 14.571 1.77059 30.0491 1.78688L58.1911 1.81641L58.2239 3.45609ZM6.66761 7.70121C6.87685 8.5316 7.44513 9.80215 8.02114 10.7271C8.52307 11.5332 8.53913 11.5904 8.73078 13.2466C8.88223 14.556 8.91259 15.5411 8.86453 17.5781C8.77872 21.2186 8.38299 23.5057 7.25336 26.8907C6.66011 28.6683 5.09255 32.0447 4.28643 33.2812L3.8662 33.9258L3.86327 20.5371L3.86023 7.14844H5.19429H6.52848L6.66761 7.70121ZM10.3633 7.64648C11.1638 9.65344 13.0392 11.3869 15.1718 12.0912C16.5608 12.5497 18.7673 12.4564 20.1111 11.8822C20.1843 11.8508 20.4632 12.1529 20.7307 12.5535C21.2812 13.3775 21.2943 13.3482 20.2122 13.7046C18.6006 14.2355 16.648 14.3065 15.0546 13.8923C14.0136 13.6218 12.3455 12.7579 11.4785 12.0402C10.2166 10.9958 9.08466 9.34945 8.53983 7.76625L8.3272 7.14844H9.24584H10.1646L10.3633 7.64648ZM18.9078 7.41211C18.9661 7.73238 19.4119 9.83895 19.4685 10.0616C19.5277 10.2948 18.7162 10.5539 17.692 10.6288C16.6796 10.7029 15.7054 10.4977 14.7347 10.0059C13.9939 9.63059 12.6671 8.33707 12.3149 7.64648L12.0607 7.14844H15.4603H18.8598L18.9078 7.41211ZM22.4256 7.29492C22.4462 7.37555 22.552 7.81055 22.6608 8.26172C23.3446 11.0992 25.7049 13.4249 28.5066 14.0221C29.6063 14.2564 31.1938 14.1751 32.2272 13.8313C34.8303 12.9655 36.8818 10.6341 37.4372 7.91016L37.5805 7.20703L38.4885 7.17258C39.3143 7.14141 39.3911 7.15723 39.3369 7.34836C39.3042 7.46402 39.2411 7.7959 39.1965 8.08594C38.8859 10.1125 37.419 12.4743 35.614 13.8543C33.8647 15.1914 32.0128 15.8203 29.8242 15.8203C25.0276 15.8203 21.3899 12.5387 20.6986 7.58789L20.6373 7.14844H21.5127C22.1149 7.14844 22.3999 7.19414 22.4256 7.29492ZM35.6961 7.63348C35.5573 8.50125 34.8902 9.74508 34.1253 10.5626C31.8129 13.0339 28.1871 13.0339 25.8747 10.5626C25.1098 9.74508 24.4427 8.50125 24.3039 7.63348L24.2263 7.14844H30H35.7737L35.6961 7.63348ZM47.702 7.61332C47.5714 7.86902 47.1435 8.42156 46.7508 8.84121C45.5545 10.1198 43.9361 10.7621 42.2494 10.6279C41.2694 10.5498 40.4741 10.2877 40.5315 10.0616C40.5881 9.83895 41.0339 7.73238 41.0922 7.41211L41.1402 7.14844H44.5397H47.9393L47.702 7.61332ZM51.4602 7.76625C50.9153 9.34945 49.7834 10.9958 48.5215 12.0402C47.6545 12.7579 45.9864 13.6218 44.9454 13.8923C43.352 14.3065 41.3994 14.2355 39.7878 13.7046C38.7057 13.3482 38.7188 13.3775 39.2693 12.5535C39.5368 12.1529 39.8157 11.8508 39.8889 11.8822C41.2353 12.4575 43.4421 12.5501 44.8282 12.0893C46.882 11.4066 48.5839 9.89789 49.4873 7.95926L49.8652 7.14844H50.7689H51.6728L51.4602 7.76625ZM56.1398 20.5078C56.1398 27.8555 56.1194 33.8672 56.0945 33.8672C56.0072 33.8672 55.0927 32.2553 54.4534 30.9744C52.8906 27.8433 51.9471 24.8718 51.3671 21.2538C51.1032 19.6084 51.0758 14.4756 51.3214 12.7148C51.4674 11.668 51.5447 11.443 52.045 10.6055C52.6084 9.66234 53.2272 8.23641 53.3801 7.5293L53.4624 7.14844H54.801H56.1398V20.5078ZM11.8378 14.413C12.8231 15.0151 14.2616 15.5385 15.5472 15.7625C16.1047 15.8598 16.5783 15.957 16.5999 15.9785C16.6722 16.0507 16.2778 17.9725 15.8665 19.5523C14.5437 24.6328 11.8227 29.4334 8.03591 33.3675L6.87814 34.5703H6.24832C5.90194 34.5703 5.61851 34.5543 5.61851 34.5347C5.61851 34.515 5.95481 33.9098 6.36578 33.1898C7.81776 30.6457 8.99042 27.697 9.70803 24.7852C10.4466 21.7883 10.7016 19.4058 10.6412 16.065C10.5968 13.613 10.5977 13.6024 10.8329 13.7725C10.9629 13.8664 11.4151 14.1547 11.8378 14.413ZM49.359 16.0554C49.3147 18.5064 49.431 20.2965 49.7625 22.2656C50.4344 26.2579 51.8666 30.2198 53.8499 33.5735C54.1423 34.0679 54.3815 34.4945 54.3815 34.5214C54.3815 34.5483 54.0965 34.5703 53.7482 34.5703H53.1148L51.7992 33.1934C47.6286 28.8288 44.8637 23.5121 43.6561 17.535C43.4886 16.7057 43.3713 16.0073 43.3954 15.9832C43.4196 15.9591 43.8922 15.8603 44.4458 15.7638C46.0989 15.4755 47.8048 14.7729 48.9829 13.8947C49.205 13.7292 49.3904 13.5938 49.3951 13.5938C49.3997 13.5938 49.3835 14.7015 49.359 16.0554ZM22.4523 16.4808C22.2852 17.3099 21.9635 18.6311 21.7373 19.4167C21.2411 21.1393 21.2312 21.3539 21.6347 21.6711C22.2523 22.1569 22.7364 21.9371 23.0819 21.0142C23.3662 20.2543 24.0855 17.488 24.2039 16.6986C24.2474 16.4089 24.3065 16.1719 24.3352 16.1719C24.3639 16.1719 24.8194 16.377 25.3475 16.6276C26.9842 17.4045 28.0332 17.6302 30 17.6285C32.0861 17.6268 33.3822 17.32 35.0703 16.4284C35.3768 16.2664 35.6446 16.1557 35.6651 16.1822C35.6857 16.2088 35.8206 16.8054 35.965 17.508C37.5075 25.0153 42.0452 32.4095 47.4634 36.2448L48.3338 36.861L48.3012 37.4745C48.2833 37.812 48.3324 38.2853 48.4103 38.5264C48.6951 39.4079 49.5669 40.3054 50.3223 40.495C50.4918 40.5375 50.6305 40.585 50.6305 40.6004C50.6305 40.6158 50.0308 41.8637 49.298 43.3734C47.9667 46.1157 47.0388 48.1775 45.7442 51.2695L45.0572 52.9102L42.3414 52.9416L39.6255 52.9731L39.3843 53.2797C39.0697 53.6795 39.0799 53.9368 39.4259 54.3391L39.7088 54.668L48.9499 54.7266L58.1911 54.7852V56.4844V58.1836H30H1.8089V56.4844V54.7852L18.9814 54.7266C28.4263 54.6943 36.2478 54.6223 36.3624 54.5662C36.8341 54.3361 36.9454 53.5842 36.5642 53.2031C36.3332 52.9721 36.1736 52.9688 25.666 52.9688H15.002L14.8367 52.6465C14.7459 52.4693 14.3696 51.5859 14.0007 50.6836C13.0578 48.3777 12.1159 46.2939 10.6421 43.2533C9.94224 41.8092 9.36951 40.6152 9.36951 40.6C9.36951 40.5847 9.51087 40.5368 9.68353 40.4934C10.1288 40.3818 10.7999 39.8732 11.1487 39.3831C11.5618 38.8025 11.7371 38.1948 11.6988 37.4745L11.6662 36.861L12.5283 36.2508C15.6751 34.0233 18.5629 30.5849 20.8383 26.3566C21.4823 25.1599 21.5884 24.6125 21.249 24.2378C20.9942 23.9562 20.2522 23.9507 20.0145 24.2285C19.918 24.3414 19.5383 25.0076 19.1709 25.7092C17.3289 29.2256 14.1204 33.0537 11.5944 34.7486L10.7175 35.337L10.0086 34.9744L9.29976 34.6118L10.1083 33.7414C10.5529 33.2627 11.375 32.2646 11.935 31.5234C15.2471 27.1395 17.2657 22.4421 18.3054 16.6992C18.4397 15.9577 18.4821 15.8757 18.747 15.8463C19.4472 15.7686 21.0893 15.3071 21.7361 15.0063C22.7875 14.5173 22.8301 14.605 22.4523 16.4808ZM39.1514 15.357C39.5659 15.498 40.2742 15.6763 40.7255 15.7533L41.546 15.8931L41.6946 16.7064C42.7481 22.4755 44.754 27.141 48.065 31.5234C48.625 32.2646 49.4471 33.2627 49.8917 33.7414L50.7002 34.6118L49.9914 34.9744L49.2825 35.337L48.4056 34.7486C47.2899 34 45.1227 31.9117 43.9504 30.4555C40.8152 26.5614 38.632 21.812 37.5564 16.5459C37.3052 15.3164 37.2696 14.9631 37.3825 14.8268C37.5066 14.6775 37.5811 14.6841 37.9614 14.878C38.2014 15.0005 38.737 15.216 39.1514 15.357ZM9.05325 36.4532C9.57921 36.5992 9.95455 37.125 9.95513 37.7168C9.95548 38.0073 9.85198 38.213 9.55706 38.5078L9.15851 38.9062H5.86654H2.57457L2.21377 38.584C1.49522 37.942 1.71606 36.714 2.59567 36.4604C3.13324 36.3054 8.49939 36.2994 9.05325 36.4532ZM57.3474 36.4532C58.2845 36.7133 58.5324 37.9173 57.7862 38.584L57.4254 38.9062H54.1335H50.8415L50.4429 38.5078C50.148 38.213 50.0445 38.0073 50.0449 37.7168C50.0455 37.1597 50.4258 36.5941 50.8898 36.4604C51.4273 36.3054 56.7935 36.2994 57.3474 36.4532ZM4.45851 40.9863C5.38841 43.4113 7.64721 52.5983 7.38382 52.8843C7.33764 52.9344 6.53903 52.9608 5.60925 52.9429L3.91884 52.9102L3.88848 46.7871C3.85835 40.6984 3.85952 40.6641 4.09654 40.6641C4.24846 40.6641 4.37974 40.7809 4.45851 40.9863ZM9.07236 44.0918C10.4639 46.9315 13.0033 52.6178 13.0033 52.894C13.0033 52.9351 12.1676 52.9688 11.1462 52.9688H9.28921L8.90614 51.0059C8.30328 47.9173 7.19486 43.6093 6.44384 41.4367C6.31221 41.0561 6.2046 40.7264 6.2046 40.7043C6.2046 40.6822 6.47198 40.6641 6.79867 40.6641H7.39273L9.07236 44.0918ZM53.7954 40.7043C53.7954 40.7264 53.6878 41.0561 53.5562 41.4367C52.8051 43.6093 51.6967 47.9173 51.0939 51.0059L50.7108 52.9688H48.8538C47.8324 52.9688 46.9967 52.9351 46.9967 52.894C46.9967 52.6178 49.5361 46.9315 50.9276 44.0918L52.6073 40.6641H53.2013C53.528 40.6641 53.7954 40.6822 53.7954 40.7043ZM56.1115 46.7871L56.0812 52.9102L54.3908 52.9429C53.461 52.9608 52.6624 52.9344 52.6162 52.8843C52.413 52.6638 53.7764 46.7408 54.842 43.2144C55.598 40.7126 55.6183 40.6641 55.9035 40.6641C56.1405 40.6641 56.1417 40.6984 56.1115 46.7871Z" fill="white"/>
</svg>
