<svg width="60" height="60" viewBox="0 0 60 60" fill="none" xmlns="http://www.w3.org/2000/svg">
<path fill-rule="evenodd" clip-rule="evenodd" d="M31.8477 0.162377C31.6752 0.273884 31.4775 0.489745 31.4081 0.642056C31.3277 0.81852 31.2819 2.10677 31.2819 4.19644V7.47399L30.6665 7.47539C29.2571 7.47856 27.9797 8.07268 26.7684 9.28835C25.8423 10.2177 25.2489 11.2809 25.0454 12.3758C24.6508 14.498 26.1062 16.2646 28.2511 16.2672C30.183 16.2695 32.5823 14.4878 33.4097 12.4363C33.6791 11.7686 33.6858 11.6582 33.7198 7.37338L33.7545 2.99296L34.4488 3.65544C36.0078 5.14278 38.0425 5.4263 38.6076 4.23501C38.9653 3.48108 38.4851 2.62397 37.6283 2.4869C37.3938 2.44938 37.0914 2.39638 36.9565 2.36918C36.8216 2.34198 36.2941 1.94309 35.7842 1.48275C34.6836 0.488925 33.9233 0.102579 32.9053 0.0200331C32.3243 -0.026985 32.0924 0.00420405 31.8477 0.162377ZM51.269 0.172813C50.9466 0.288775 50.5585 0.470985 50.4064 0.577684C49.8843 0.944332 44.9387 5.89472 44.6047 6.38507C44.0624 7.18121 43.9531 7.64506 43.9475 9.17461L43.9424 10.5821L38.3864 16.1383L32.8304 21.6947L31.7662 21.2637C30.0459 20.5671 29.0653 20.3533 27.2797 20.2858C26.0429 20.2389 25.4827 20.2694 24.8061 20.4199C23.0084 20.8199 21.4242 21.8871 20.4928 23.3254C20.2551 23.6924 19.8884 24.5366 19.6779 25.2015C19.0906 27.0563 18.563 28.0439 17.6837 28.9352C17.0135 29.6145 16.7742 29.7683 15.6974 30.2113C14.2055 30.825 12.7337 31.2089 11.1777 31.39C9.07582 31.6346 7.72596 32.0269 6.07835 32.872C0.0762566 35.9506 -1.64322 42.0896 1.64837 48.6881C2.80551 51.0076 4.14928 52.8048 6.17307 54.7397C8.71206 57.1672 11.4569 58.8065 14.3324 59.6129C15.8963 60.0514 18.5986 60.131 20.0635 59.7816C22.089 59.2985 23.6944 58.3488 25.1955 56.7456C27.0929 54.719 28.0371 52.5247 28.5869 48.864C28.9842 46.2189 29.5944 44.3453 30.5054 42.9723C31.2163 41.9012 32.3924 41.1713 34.6067 40.4272C35.3534 40.1763 36.2355 39.8235 36.5667 39.6432C37.8172 38.9624 38.9465 37.4611 39.4199 35.8502C40.084 33.5905 39.78 30.5602 38.64 28.0732L38.2735 27.2739L43.8199 21.7254L49.3662 16.1769L50.9037 16.1275C53.1118 16.0566 53.0727 16.0812 56.6179 12.5329C59.2483 9.90017 59.5272 9.58277 59.7537 8.9645C60.0829 8.06623 60.082 6.99501 59.7516 6.10073C59.5265 5.49125 59.2544 5.17573 57.0847 3.00715C54.3809 0.304604 54.0822 0.101523 52.6836 0.013936C52.076 -0.0240537 51.6989 0.0182743 51.269 0.172813ZM52.9318 2.55502C53.1133 2.62268 54.173 3.58567 55.2866 4.69488C57.4501 6.84997 57.6814 7.19786 57.4191 7.90231C57.2565 8.33919 52.5701 13.0512 52.0063 13.3447C51.663 13.5234 51.3294 13.5711 50.422 13.5711H49.2726L47.8278 12.1226L46.3831 10.6739L46.4229 9.30922L46.4627 7.9444L49.0417 5.35243C51.3683 3.01418 52.029 2.45102 52.4629 2.43672C52.5394 2.43426 52.7504 2.48749 52.9318 2.55502ZM9.52221 10.101C8.77924 10.432 8.77455 10.4579 8.77455 14.1965V17.5838L8.38922 17.5115C7.81634 17.404 6.70445 17.6455 5.8521 18.0626C4.41585 18.7654 3.02895 20.4724 2.60728 22.0564C2.16194 23.7295 2.80059 25.2315 4.26111 25.9462C4.8286 26.2239 5.00819 26.254 5.87625 26.2172C6.72989 26.181 6.97044 26.1178 7.78446 25.7165C9.04815 25.0936 10.0958 24.0458 10.7186 22.7818L11.1777 21.8504L11.2363 17.485L11.2949 13.1197L12.0569 13.7748C12.965 14.5557 13.5547 14.8372 14.4857 14.9345C15.3561 15.0256 15.867 14.7949 16.1162 14.1982C16.2526 13.8714 16.2612 13.7025 16.1571 13.387C16.0014 12.9152 15.5368 12.5158 15.1438 12.5158C14.6414 12.5158 14.0576 12.1871 13.1424 11.3887C11.7822 10.2022 10.3994 9.71034 9.52221 10.101ZM31.0542 10.1526C31.5995 10.5943 31.3123 11.5586 30.3482 12.523C29.408 13.4633 28.2134 13.9182 27.7605 13.5083C26.9655 12.7886 28.3954 10.6163 29.9925 10.1174C30.6919 9.89888 30.7429 9.90052 31.0542 10.1526ZM46.1122 13.924L47.0457 14.8632L41.2803 20.6367C37.4237 24.4988 35.4893 26.5166 35.4375 26.7312C35.3772 26.9812 35.5054 27.3448 36.0157 28.3728C37.3811 31.1238 37.6239 33.8336 36.6815 35.8083C36.0977 37.0317 35.7504 37.2926 33.818 37.9591C31.5218 38.751 30.1328 39.5546 29.1045 40.6862C27.6444 42.293 26.6078 44.9452 26.1245 48.3108C25.8305 50.3587 25.5396 51.4506 24.9624 52.6726C23.857 55.0134 21.9267 56.6545 19.5593 57.2662C18.5268 57.5329 16.5976 57.5336 15.4411 57.2676C12.7377 56.6459 10.3375 55.2177 7.73557 52.6827C3.04829 48.1162 1.37219 42.8603 3.32178 38.8422C4.56953 36.2704 7.13069 34.5697 10.5607 34.0349C14.3251 33.448 15.3216 33.1802 17.2119 32.2473C18.348 31.6864 18.6948 31.4455 19.4425 30.697C20.5404 29.5976 21.2598 28.3431 21.9082 26.397C22.1686 25.6158 22.5303 24.7419 22.7123 24.455C23.5525 23.1298 25.6515 22.4836 27.9995 22.827C29.3409 23.0231 30.3172 23.3377 31.718 24.0253C32.8094 24.561 32.9503 24.6021 33.3006 24.4863C33.5695 24.3976 35.3945 22.6493 39.3701 18.6722C42.4968 15.5441 45.083 12.9848 45.117 12.9848C45.151 12.9848 45.5988 13.4074 46.1122 13.924ZM8.66588 20.2062C9.05683 20.6773 8.65087 21.7913 7.7657 22.6767C7.22658 23.216 6.21527 23.7689 5.7643 23.7709C4.81418 23.7752 4.97513 22.0544 6.01985 21.0396C6.89494 20.1895 8.28806 19.7508 8.66588 20.2062ZM23.7209 30.7303C22.4116 31.1646 21.4821 31.9551 20.9049 33.1252C20.4666 34.0137 20.3683 35.399 20.6772 36.3336C21.0896 37.5812 21.8918 38.4928 23.0761 39.0602C23.7638 39.3896 23.9466 39.4252 24.9517 39.4252C25.9547 39.4252 26.1411 39.3891 26.8274 39.0621C27.8173 38.5901 28.5185 37.8927 28.9779 36.9229C29.3121 36.2173 29.3477 36.0349 29.3477 35.0282C29.3477 34.0535 29.3063 33.8249 29.017 33.1985C28.5956 32.2867 27.6891 31.3866 26.7687 30.9664C25.9349 30.5857 24.4933 30.4739 23.7209 30.7303ZM25.8987 33.4188C26.5172 33.8357 26.8274 34.3829 26.8274 35.0572C26.8274 36.2332 26.154 36.9043 24.9738 36.9043C23.5326 36.9043 22.5954 35.2764 23.2903 33.9802C23.7286 33.1628 25.0856 32.8707 25.8987 33.4188ZM53.9652 35.5501C50.5769 36.4242 42.0605 38.7754 41.8242 38.9019C41.2555 39.2063 41.2462 39.3139 41.2462 45.5018V51.2969L40.257 51.3488C39.417 51.3929 39.1383 51.4648 38.4096 51.825C37.4756 52.2867 36.5483 53.122 35.8994 54.0863C33.9676 56.9567 35.419 60.248 38.4916 59.9648C40.4829 59.7812 42.573 58.1545 43.3774 56.1621C43.644 55.5018 43.65 55.3964 43.6835 50.7139L43.7178 45.939L44.211 45.8076C45.2409 45.533 54.5608 42.9907 54.7565 42.9309C54.9481 42.8724 54.9616 43.064 54.9617 45.8369V48.8054L54.3752 48.7647C53.5749 48.7092 52.3489 49.0996 51.4615 49.6923C49.6298 50.9157 48.4232 53.2445 48.7441 54.9371C48.8976 55.7472 49.1044 56.1214 49.6918 56.6521C50.3863 57.2798 50.8832 57.4599 51.9137 57.4573C54.2959 57.4514 56.3884 55.7505 57.2201 53.1437C57.4809 52.3262 57.482 52.2899 57.482 44.0177V35.7125L57.0991 35.3704C56.5922 34.9173 56.3682 34.9302 53.9652 35.5501ZM54.9616 39.1229V40.2864L54.5806 40.4065C54.371 40.4726 51.9313 41.1387 49.1589 41.8868C46.3865 42.635 44.0239 43.2751 43.9088 43.3093C43.7159 43.3668 43.7022 43.2767 43.733 42.1606L43.7665 40.9495L49.1589 39.4645C52.1247 38.6477 54.6437 37.9749 54.7565 37.9695C54.9388 37.9606 54.9616 38.0893 54.9616 39.1229ZM10.3454 42.462C10.0375 42.7699 9.94681 42.9582 9.94681 43.2892C9.94681 43.6795 10.0953 43.8755 11.6013 45.4738C13.4481 47.4336 15.7809 49.6593 16.2441 49.9031C16.4838 50.0294 16.6408 50.0349 16.9921 49.9296C17.584 49.7522 17.9182 49.3111 17.9182 48.707C17.9182 48.2405 17.8542 48.1655 15.0168 45.3138C13.421 43.7101 11.9731 42.3226 11.799 42.2306C11.2561 41.9438 10.7892 42.0181 10.3454 42.462ZM54.8209 51.467C54.8983 51.5444 54.9616 51.8103 54.9616 52.0579C54.9616 53.2828 53.2483 54.9611 51.998 54.9611C50.5599 54.9611 51.6835 52.3676 53.474 51.5545C54.036 51.2993 54.6156 51.2616 54.8209 51.467ZM40.9573 53.9531C41.1129 54.0668 41.1812 54.2567 41.179 54.5687C41.1682 56.0615 38.7852 58.0291 37.7832 57.3724C36.9427 56.8216 38.0794 54.8015 39.6386 54.0755C40.34 53.7488 40.6401 53.7211 40.9573 53.9531Z" fill="white"/>
</svg>
