<svg width="40" height="40" viewBox="0 0 40 40" fill="none" xmlns="http://www.w3.org/2000/svg">
<g clip-path="url(#clip0_95_399)">
<path d="M39.5349 9.76855C39.2421 9.54714 38.8623 9.47566 38.5089 9.57566L21.9465 14.2631C21.442 14.406 21.0937 14.8664 21.0937 15.3907V31.2557C20.4036 30.8554 19.6035 30.625 18.75 30.625C16.1653 30.625 14.0625 32.7278 14.0625 35.3125C14.0625 37.8972 16.1653 40 18.75 40C21.3347 40 23.4375 37.8972 23.4375 35.3125C23.4375 35.1908 23.4375 20.9644 23.4375 20.9644L37.6562 16.9402V26.5682C36.9661 26.1679 36.1659 25.9375 35.3124 25.9375C32.7277 25.9375 30.6249 28.0404 30.6249 30.625C30.6249 33.2097 32.7277 35.3125 35.3124 35.3125C37.8971 35.3125 39.9999 33.2097 39.9999 30.625C39.9999 30.521 39.9999 10.7032 39.9999 10.7032C40 10.336 39.8278 9.99003 39.5349 9.76855ZM18.7501 37.6563C17.4577 37.6563 16.4063 36.6049 16.4063 35.3125C16.4063 34.0202 17.4577 32.9688 18.7501 32.9688C20.0424 32.9688 21.0938 34.0202 21.0938 35.3125C21.0938 36.6049 20.0424 37.6563 18.7501 37.6563ZM35.3125 32.9688C34.0202 32.9688 32.9688 31.9174 32.9688 30.625C32.9688 29.3327 34.0202 28.2813 35.3125 28.2813C36.6048 28.2813 37.6562 29.3327 37.6562 30.625C37.6562 31.9174 36.6048 32.9688 35.3125 32.9688ZM37.6562 14.5045L23.4375 18.5287V16.277L37.6562 12.2528V14.5045Z" fill="#F24617"/>
<path d="M16.3518 8.31876C13.7518 6.41283 11.8471 4.52518 10.5288 2.54777L9.17809 0.521919C8.89161 0.0922335 8.35762 -0.0992501 7.86348 0.0503586C7.36927 0.200046 7.03122 0.655591 7.03122 1.17199V19.5369C6.34115 19.1367 5.54099 18.9063 4.68748 18.9063C2.1028 18.9063 0 21.0091 0 23.5938C0 26.1785 2.1028 28.2813 4.68748 28.2813C7.27216 28.2813 9.37496 26.1785 9.37496 23.5938V4.95268C10.7755 6.75729 12.6163 8.48658 14.9661 10.2091C15.8678 10.8701 16.4062 11.9309 16.4062 13.047C16.4062 14.9855 14.8291 16.5626 12.8906 16.5626C12.2434 16.5626 11.7187 17.0873 11.7187 17.7345C11.7187 18.3817 12.2434 18.9064 12.8906 18.9064C16.1214 18.9063 18.7499 16.2778 18.7499 13.0469C18.7499 11.187 17.8534 9.41946 16.3518 8.31876ZM4.68748 25.9375C3.39514 25.9375 2.34374 24.8861 2.34374 23.5938C2.34374 22.3014 3.39514 21.25 4.68748 21.25C5.97982 21.25 7.03122 22.3014 7.03122 23.5938C7.03122 24.8861 5.97982 25.9375 4.68748 25.9375Z" fill="#F24617"/>
</g>
<defs>
<clipPath id="clip0_95_399">
<rect width="40" height="40" fill="white"/>
</clipPath>
</defs>
</svg>
