<svg width="70" height="70" viewBox="0 0 70 70" fill="none" xmlns="http://www.w3.org/2000/svg">
<g clip-path="url(#clip0_37_1002)">
<path d="M56 28C63.7201 28 70 21.7201 70 14C70 6.27995 63.7201 0 56 0C50.394 0 45.5604 3.31942 43.3267 8.08976L39.5778 6.70605C39.6222 6.41895 39.6667 6.13184 39.6667 5.83333C39.6667 2.61702 37.0496 0 33.8333 0C30.617 0 28 2.61702 28 5.83333C28 9.04964 30.617 11.6667 33.8333 11.6667C35.9229 11.6667 37.7452 10.5524 38.7751 8.89697L42.5178 10.2784C42.1891 11.4661 42 12.7097 42 14C42 15.5284 42.2541 16.9958 42.7092 18.3739L29.8782 23.8118C27.5289 19.3702 22.8656 16.3333 17.5 16.3333C15.7614 16.3333 14.1025 16.6672 12.565 17.2482L9.33789 10.4664C10.7438 9.39998 11.6667 7.72917 11.6667 5.83333C11.6667 2.61702 9.04964 0 5.83333 0C2.61702 0 0 2.61702 0 5.83333C0 9.04964 2.61702 11.6667 5.83333 11.6667C6.31868 11.6667 6.7841 11.5898 7.23584 11.4764L10.459 18.2514C6.30444 20.6827 3.5 25.1813 3.5 30.3333C3.5 35.1726 5.96891 39.4439 9.71159 41.959L7.57764 45.7951C7.02222 45.6202 6.44458 45.5 5.83333 45.5C2.61702 45.5 0 48.117 0 51.3333C0 54.5496 2.61702 57.1667 5.83333 57.1667C9.04964 57.1667 11.6667 54.5496 11.6667 51.3333C11.6667 49.5668 10.8606 48.0002 9.61702 46.9304L11.7555 43.0863C13.5101 43.8805 15.4515 44.3333 17.5 44.3333C20.7015 44.3333 23.6461 43.2413 26.0073 41.4258L30.5994 46.4775C28.2706 48.9789 26.8333 52.3206 26.8333 56C26.8333 56.7138 26.9045 57.4093 27.0071 58.0941L21.6044 59.3764C20.6747 57.3883 18.6689 56 16.3333 56C13.117 56 10.5 58.617 10.5 61.8333C10.5 65.0496 13.117 67.6667 16.3333 67.6667C19.5496 67.6667 22.1667 65.0496 22.1667 61.8333C22.1667 61.769 22.149 61.7086 22.1479 61.6442L27.5403 60.3659C29.3791 65.9526 34.6383 70 40.8333 70C48.5534 70 54.8333 63.7201 54.8333 56C54.8333 53.6063 54.2278 51.3521 53.1637 49.3805L60.0167 44.9246C61.0763 45.9979 62.5437 46.6667 64.1667 46.6667C67.383 46.6667 70 44.0496 70 40.8333C70 37.617 67.383 35 64.1667 35C60.9504 35 58.3333 37.617 58.3333 40.8333C58.3333 41.587 58.4883 42.3031 58.7498 42.965L51.8808 47.4306C50.5062 45.6635 48.7214 44.2365 46.6667 43.2891L52.361 27.5033C53.5231 27.8166 54.7399 28 56 28ZM33.8333 9.33333C31.9039 9.33333 30.3333 7.76278 30.3333 5.83333C30.3333 3.90389 31.9039 2.33333 33.8333 2.33333C35.7628 2.33333 37.3333 3.90389 37.3333 5.83333C37.3333 7.76278 35.7628 9.33333 33.8333 9.33333ZM2.33333 5.83333C2.33333 3.90389 3.90389 2.33333 5.83333 2.33333C7.76278 2.33333 9.33333 3.90389 9.33333 5.83333C9.33333 7.76278 7.76278 9.33333 5.83333 9.33333C3.90389 9.33333 2.33333 7.76278 2.33333 5.83333ZM5.83333 54.8333C3.90389 54.8333 2.33333 53.2628 2.33333 51.3333C2.33333 49.4039 3.90389 47.8333 5.83333 47.8333C7.76278 47.8333 9.33333 49.4039 9.33333 51.3333C9.33333 53.2628 7.76278 54.8333 5.83333 54.8333ZM16.3333 65.3333C14.4039 65.3333 12.8333 63.7628 12.8333 61.8333C12.8333 59.9039 14.4039 58.3333 16.3333 58.3333C18.2628 58.3333 19.8333 59.9039 19.8333 61.8333C19.8333 63.7628 18.2628 65.3333 16.3333 65.3333ZM64.1667 37.3333C66.0961 37.3333 67.6667 38.9039 67.6667 40.8333C67.6667 42.7628 66.0961 44.3333 64.1667 44.3333C62.2372 44.3333 60.6667 42.7628 60.6667 40.8333C60.6667 38.9039 62.2372 37.3333 64.1667 37.3333ZM49.1293 23.408C49.65 20.7095 52.0289 18.6667 54.8333 18.6667H57.1667C59.9711 18.6667 62.35 20.7095 62.8707 23.408C60.9407 24.8207 58.5703 25.6667 56 25.6667C53.4297 25.6667 51.0593 24.8207 49.1293 23.408ZM56 16.3333C54.0706 16.3333 52.5 14.7628 52.5 12.8333C52.5 10.9039 54.0706 9.33333 56 9.33333C57.9294 9.33333 59.5 10.9039 59.5 12.8333C59.5 14.7628 57.9294 16.3333 56 16.3333ZM56 2.33333C62.4332 2.33333 67.6667 7.56681 67.6667 14C67.6667 16.9167 66.5826 19.5815 64.8058 21.6289C63.9884 19.4762 62.2839 17.7581 60.1602 16.9098C61.193 15.8571 61.8333 14.4198 61.8333 12.8333C61.8333 9.61702 59.2163 7 56 7C52.7837 7 50.1667 9.61702 50.1667 12.8333C50.1667 14.4198 50.807 15.8571 51.8398 16.9098C49.7161 17.7581 48.0116 19.4762 47.1942 21.6289C45.4174 19.5815 44.3333 16.9167 44.3333 14C44.3333 7.56681 49.5668 2.33333 56 2.33333ZM5.83333 30.3333C5.83333 23.9001 11.0668 18.6667 17.5 18.6667C23.9332 18.6667 29.1667 23.9001 29.1667 30.3333C29.1667 33.2591 28.0758 35.9308 26.2899 37.981C25.4753 35.8203 23.7674 34.0937 21.638 33.2432C22.6697 32.1904 23.31 30.7532 23.31 29.1667C23.31 25.9504 20.693 23.3333 17.4766 23.3333C14.2603 23.3333 11.6433 25.9504 11.6433 29.1667C11.6433 30.7532 12.2836 32.1904 13.3164 33.2432C11.199 34.0874 9.49683 35.7992 8.67651 37.9434C6.90999 35.8984 5.83333 33.242 5.83333 30.3333ZM13.9766 29.1667C13.9766 27.2372 15.5472 25.6667 17.4766 25.6667C19.4061 25.6667 20.9766 27.2372 20.9766 29.1667C20.9766 31.0961 19.4061 32.6667 17.4766 32.6667C15.5472 32.6667 13.9766 31.0961 13.9766 29.1667ZM10.6099 39.7259C11.1357 37.0348 13.5112 35 16.31 35H18.6433C21.4529 35 23.8363 37.0496 24.3496 39.7567C22.4236 41.1609 20.0606 42 17.5 42C14.9206 42 12.5428 41.1484 10.6099 39.7259ZM33.9433 65.3926C34.4691 62.7015 36.8446 60.6667 39.6433 60.6667H41.9766C44.7862 60.6667 47.1697 62.7163 47.6829 65.4233C45.7569 66.8276 43.394 67.6667 40.8333 67.6667C38.2539 67.6667 35.8761 66.815 33.9433 65.3926ZM40.81 58.3333C38.8805 58.3333 37.31 56.7628 37.31 54.8333C37.31 52.9039 38.8805 51.3333 40.81 51.3333C42.7394 51.3333 44.31 52.9039 44.31 54.8333C44.31 56.7628 42.7394 58.3333 40.81 58.3333ZM52.5 56C52.5 58.9258 51.4091 61.5975 49.6232 63.6477C48.8086 61.487 47.1007 59.7603 44.9714 58.9098C46.003 57.8571 46.6433 56.4198 46.6433 54.8333C46.6433 51.617 44.0263 49 40.81 49C37.5937 49 34.9766 51.617 34.9766 54.8333C34.9766 56.4198 35.6169 57.8571 36.6497 58.9098C34.5323 59.7541 32.8302 61.4659 32.0098 63.6101C30.2433 61.565 29.1667 58.9087 29.1667 56C29.1667 49.5668 34.4001 44.3333 40.8333 44.3333C47.2665 44.3333 52.5 49.5668 52.5 56ZM44.4723 42.4967C43.3102 42.1834 42.0934 42 40.8333 42C37.6318 42 34.6873 43.092 32.326 44.9076L27.734 39.8558C30.0627 37.3544 31.5 34.0128 31.5 30.3333C31.5 28.8049 31.2459 27.3375 30.7908 25.9595L43.6218 20.5215C45.0591 23.2388 47.3656 25.4194 50.1678 26.7109L44.4723 42.4967Z" fill="white"/>
</g>
<defs>
<clipPath id="clip0_37_1002">
<rect width="70" height="70" fill="white"/>
</clipPath>
</defs>
</svg>
