<svg width="70" height="70" viewBox="0 0 70 70" fill="none" xmlns="http://www.w3.org/2000/svg">
<g clip-path="url(#clip0_37_1010)">
<path d="M63.2259 31.0521V3.38707C63.2259 1.51949 61.7064 0 59.8387 0H10.1613C8.29363 0 6.77414 1.51949 6.77414 3.38707V31.052C2.27924 32.773 0 34.8588 0 37.258V41.7741C0 44.7892 3.72025 47.375 10.7587 49.2518C10.9077 49.2916 11.0592 49.3304 11.2103 49.3694L5.79688 65.9684C5.69625 66.277 5.64512 66.598 5.64512 66.9226C5.64512 68.6194 7.0257 70 8.72266 70H10.1273C11.2604 70 12.2984 69.3803 12.8361 68.383L22.0664 51.2621C24.5822 51.5361 27.22 51.7296 29.9361 51.8365L31.4459 67.2231C31.6012 68.8062 32.9178 70 34.5085 70H35.4916C37.0824 70 38.3991 68.8062 38.5543 67.2231L40.0641 51.8365C42.7801 51.7293 45.4181 51.536 47.9337 51.2621L57.164 68.383C57.7017 69.3803 58.7397 70 59.8728 70H61.2773C62.9742 70 64.3548 68.6194 64.3548 66.9226C64.3548 66.598 64.3037 66.2769 64.2031 65.9684L58.7896 49.3695C58.941 49.3306 59.0923 49.2918 59.2413 49.252C66.2797 47.3751 70 44.7893 70 41.7741V37.258C70 34.8588 67.7208 32.773 63.2259 31.0521ZM18.0645 36.129H51.9355V37.258C51.9355 37.8805 51.4289 38.3871 50.8065 38.3871H19.1935C18.5711 38.3871 18.0645 37.8805 18.0645 37.258V36.129ZM49.6774 33.871V22.5806H60.9678V32.742C60.9678 33.3644 60.4613 33.871 59.8388 33.871H49.6774ZM60.9677 3.38707V20.3226H49.6773V2.25805H59.8387C60.4613 2.25805 60.9677 2.76459 60.9677 3.38707ZM9.03232 3.38707C9.03232 2.76459 9.53887 2.25805 10.1613 2.25805H47.4194V33.871H10.1613C9.53887 33.871 9.03232 33.3644 9.03232 32.742V3.38707ZM6.85029 33.4545C7.17855 34.9811 8.53809 36.129 10.1613 36.129H15.8065V37.258C15.8065 39.1256 17.326 40.6451 19.1935 40.6451H50.8065C52.674 40.6451 54.1935 39.1256 54.1935 37.258V36.129H59.8387C61.4619 36.129 62.8214 34.9811 63.1497 33.4545C66.052 34.6728 67.742 36.0552 67.742 37.258C67.742 38.6474 65.3561 40.768 58.6596 42.5537C52.3543 44.2352 43.9518 45.1613 35 45.1613C26.0482 45.1613 17.6457 44.2352 11.3404 42.5538C4.64393 40.7682 2.25805 38.6474 2.25805 37.2582C2.25805 36.0552 3.94789 34.6728 6.85029 33.4545ZM10.8485 67.3113C10.7054 67.5769 10.429 67.7418 10.1273 67.7418H8.72266C8.27094 67.7418 7.9033 67.3743 7.9033 66.9225C7.9033 66.8361 7.91684 66.7506 7.94363 66.6684L13.4154 49.891C15.3609 50.3135 17.4527 50.6745 19.6582 50.9703L10.8485 67.3113ZM36.3069 67.0027C36.2656 67.4241 35.9151 67.742 35.4916 67.742H34.5085C34.0849 67.742 33.7345 67.4241 33.6932 67.0027L32.2118 51.9053C33.1346 51.9248 34.0643 51.9355 35 51.9355C35.9357 51.9355 36.8654 51.925 37.7882 51.9051L36.3069 67.0027ZM62.0564 66.6687C62.083 66.7509 62.0967 66.8363 62.0967 66.9227C62.0967 67.3745 61.7292 67.7421 61.2773 67.7421H59.8727C59.571 67.7421 59.2946 67.5771 59.1515 67.3116L50.3416 50.9707C52.5472 50.6749 54.639 50.3139 56.5845 49.8914L62.0564 66.6687ZM58.6596 47.0701C52.3544 48.7513 43.9519 49.6774 35 49.6774C26.0481 49.6774 17.6456 48.7513 11.3404 47.0701C4.64393 45.2844 2.25805 43.1636 2.25805 41.7743V41.0669C4.05672 42.4711 6.91045 43.7097 10.7587 44.7359C17.2482 46.4665 25.8573 47.4194 35 47.4194C44.1427 47.4194 52.7518 46.4663 59.2413 44.7357C63.0896 43.7095 65.9433 42.471 67.742 41.0668V41.7743C67.742 43.1636 65.3561 45.2844 58.6596 47.0701Z" fill="white"/>
<path d="M45.1613 4.51611H11.2903V31.6129H45.1613V4.51611ZM23.8526 16.9355H25.0325C25.9373 16.9355 26.7878 16.5832 27.4275 15.9435L28.2258 15.1452L29.0241 15.9435C29.6638 16.5832 30.5145 16.9355 31.4192 16.9355H32.5991C32.0965 18.8812 30.3264 20.3226 28.2258 20.3226C26.1253 20.3226 24.3552 18.8812 23.8526 16.9355ZM23.8526 14.6775C24.3552 12.7318 26.1253 11.2904 28.2258 11.2904C30.3264 11.2904 32.0965 12.7318 32.5991 14.6775H31.4192C31.1176 14.6775 30.834 14.56 30.6209 14.3466L28.226 11.9518L25.8311 14.3467C25.6178 14.5602 25.3341 14.6776 25.0328 14.6776H23.8529V14.6775H23.8526ZM33.871 29.3549H22.5806V28.2259C22.5806 25.1132 25.113 22.5808 28.2257 22.5808C31.3384 22.5808 33.8708 25.1132 33.8708 28.2259V29.3549H33.871ZM42.9031 29.3549H36.129V28.2259C36.129 25.2807 34.5086 22.7085 32.1134 21.3491C33.8573 20.1223 35 18.0958 35 15.8065C35 12.0711 31.961 9.03234 28.2258 9.03234C24.4907 9.03234 21.4517 12.0712 21.4517 15.8065C21.4517 18.0958 22.5944 20.1221 24.3382 21.3491C21.9432 22.7085 20.3227 25.2807 20.3227 28.2259V29.3549H13.5484V6.77416H42.9033V29.3549H42.9031Z" fill="white"/>
<path d="M51.9355 29.355H58.7096V31.613H51.9355V29.355Z" fill="white"/>
<path d="M51.9355 24.8386H58.7096V27.0967H51.9355V24.8386Z" fill="white"/>
<path d="M51.9355 13.5483H54.1935V15.8064H51.9355V13.5483Z" fill="white"/>
<path d="M51.9355 4.51611H54.1935V6.77416H51.9355V4.51611Z" fill="white"/>
<path d="M51.9355 9.03223H54.1935V11.2903H51.9355V9.03223Z" fill="white"/>
<path d="M56.4516 9.03223H58.7096V11.2903H56.4516V9.03223Z" fill="white"/>
<path d="M56.4516 13.5483H58.7096V15.8064H56.4516V13.5483Z" fill="white"/>
<path d="M56.4516 4.51611H58.7096V6.77416H56.4516V4.51611Z" fill="white"/>
</g>
<defs>
<clipPath id="clip0_37_1010">
<rect width="70" height="70" fill="white"/>
</clipPath>
</defs>
</svg>
