<svg width="70" height="70" viewBox="0 0 70 70" fill="none" xmlns="http://www.w3.org/2000/svg">
<g clip-path="url(#clip0_37_1004)">
<path d="M65.3481 37.3175H62.6284L55.053 18.9196C54.6941 18.0436 53.8403 17.4722 52.8936 17.4746H52.5084V12.6047C52.511 11.6755 52.1416 10.784 51.4824 10.1291L48.6566 7.30088C49.2933 5.96859 49.0237 4.37983 47.983 3.33233L45.6487 0.997678C44.2627 -0.324899 42.082 -0.324899 40.6961 0.997678C39.329 2.36512 39.329 4.58173 40.6961 5.94903L43.0306 8.28355C44.0748 9.33775 45.6746 9.60954 47.0086 8.9594L49.8344 11.7852C50.0523 12.0048 50.1751 12.3012 50.1764 12.6105V17.4743H19.8259V12.6047C19.8271 12.2955 19.95 11.999 20.1679 11.7795L22.9937 8.95366C24.3271 9.60407 25.9268 9.33214 26.9705 8.2778L29.305 5.94329C30.672 4.57584 30.672 2.35924 29.305 0.991933C27.9191 -0.330644 25.7383 -0.330644 24.3524 0.991933L22.0179 3.32645C20.9742 4.37477 20.7039 5.96681 21.3433 7.30088L18.5174 10.1291C17.8583 10.784 17.4888 11.6755 17.4914 12.6047V17.4744H17.1062C16.1595 17.4721 15.3057 18.0435 14.9468 18.9194L7.37148 37.3175H4.65191C2.71804 37.3175 1.15021 38.8853 1.15021 40.8192V41.9863C1.15404 45.2079 3.76472 47.8186 6.98643 47.8226H30.3312V61.8294H22.1606C19.582 61.8294 17.4917 63.9197 17.4917 66.4983V67.6655C17.4917 68.9548 18.5368 70 19.8262 70H50.1743C51.4637 70 52.5088 68.9548 52.5088 67.6655V66.4983C52.5088 63.9197 50.4185 61.8294 47.84 61.8294H39.6694V47.8226H63.0141C66.2357 47.8187 68.8463 45.208 68.8503 41.9863V40.8192C68.8498 38.8852 67.2821 37.3175 65.3481 37.3175ZM44.6798 6.62735L42.3453 4.29284C42.0419 3.9997 41.9202 3.56582 42.027 3.15765C42.1338 2.74949 42.4525 2.43091 42.8606 2.32408C43.2687 2.21726 43.7026 2.33899 43.9957 2.64238L46.3302 4.9769C46.7774 5.42856 46.7811 6.15489 46.3385 6.61107L46.3222 6.61928L46.314 6.63214C45.8542 7.0641 45.1371 7.06205 44.6798 6.62735ZM23.6696 4.9769L26.0041 2.64238C26.2972 2.33899 26.7311 2.21726 27.1393 2.32408C27.5474 2.43091 27.866 2.74962 27.9728 3.15765C28.0797 3.56582 27.9579 3.9997 27.6545 4.29284L25.32 6.62735C24.8637 7.06301 24.1465 7.0667 23.6859 6.63556L23.6777 6.61928H23.6601C23.2126 6.16173 23.2168 5.42911 23.6696 4.9769ZM17.1062 19.8089H52.8936L60.1036 37.3175H9.89626L17.1062 19.8089ZM50.1741 66.4983V67.6655H19.8259V66.4983C19.8259 65.2089 20.8711 64.1638 22.1604 64.1638H47.8395C49.1289 64.1638 50.1741 65.2089 50.1741 66.4983ZM37.3344 61.8294H32.6655V47.8226H37.3344V61.8294ZM66.5152 41.9863C66.5152 43.9202 64.9474 45.488 63.0135 45.488H6.98629C5.05242 45.488 3.48459 43.9202 3.48459 41.9863V40.8192C3.48459 40.1745 4.00724 39.652 4.65177 39.652H65.3479C65.9926 39.652 66.5151 40.1745 66.5151 40.8192V41.9863H66.5152Z" fill="white"/>
<path fill-rule="evenodd" clip-rule="evenodd" d="M23.3276 22.1433H19.4512C18.9782 22.1432 18.5517 22.4285 18.3716 22.8658L17.1926 25.7279C16.947 26.3242 17.2313 27.0067 17.8276 27.2524C18.4238 27.498 19.1064 27.2137 19.3521 26.6174L20.2334 24.4778H23.3277C23.9724 24.4778 24.4949 23.9553 24.4949 23.3106C24.4949 22.666 23.9723 22.1433 23.3276 22.1433Z" fill="white"/>
</g>
<defs>
<clipPath id="clip0_37_1004">
<rect width="70" height="70" fill="white"/>
</clipPath>
</defs>
</svg>
