<svg width="70" height="70" viewBox="0 0 70 70" fill="none" xmlns="http://www.w3.org/2000/svg">
<g clip-path="url(#clip0_37_942)">
<path d="M18.7648 55.369V60.1555C18.7648 61.871 20.1604 63.2668 21.876 63.2668H48.124C49.8396 63.2668 51.2352 61.871 51.2352 60.1555V55.369C51.2352 53.6556 49.8396 52.2615 48.124 52.2615H21.876C20.1604 52.2616 18.7648 53.6556 18.7648 55.369ZM48.5008 55.369V60.1555C48.5008 60.3597 48.3283 60.5324 48.124 60.5324H21.876C21.6681 60.5324 21.4992 60.3634 21.4992 60.1555V55.369C21.4992 55.1667 21.6717 54.9958 21.876 54.9958H48.124C48.3283 54.996 48.5008 55.1669 48.5008 55.369Z" fill="white"/>
<path d="M66.3774 38.7934H65.6906V32.9827C65.6906 32.9798 65.6906 32.9775 65.6906 32.9746C65.6906 32.9729 65.6906 32.971 65.6906 32.9692C65.6902 32.843 65.6837 32.7746 65.6693 32.7477C65.6295 32.5184 65.5319 32.2961 65.3717 32.1048L62.1919 28.3083C63.1802 26.7267 63.0942 24.622 61.8326 23.1159L60.5597 21.5994C59.8052 20.6955 58.74 20.1398 57.5602 20.0346C56.3776 19.9292 55.2282 20.2891 54.3226 21.0477C54.3222 21.0481 54.3216 21.0485 54.3211 21.0491C52.452 22.6198 52.2085 25.4172 53.7763 27.2829L55.048 28.8028C55.8054 29.7069 56.8725 30.2623 58.0524 30.3662C58.1857 30.3779 58.3183 30.3838 58.4504 30.3838C59.0208 30.3838 59.5775 30.2747 60.0968 30.0654L62.9564 33.4797V38.7935H51.9619C51.8525 31.115 50.6971 27.3005 45.1716 24.6509L42.9775 22.4059C44.594 20.7745 45.7285 18.766 45.7285 16.6504V13.3211V10.8676C45.7283 4.95059 40.9147 0.136719 34.9979 0.136719C29.0812 0.136719 24.2679 4.95059 24.2679 10.8676V13.3209V16.6503C24.2679 18.7666 25.403 20.7755 27.0203 22.4071L24.8251 24.6505C19.2992 27.3003 18.1438 31.1147 18.0344 38.7934H7.03992V33.4795L9.89953 30.0653C10.4189 30.2746 10.9759 30.3837 11.5466 30.3837C11.6804 30.3837 11.815 30.3777 11.9499 30.3656C13.1298 30.2605 14.1951 29.7049 14.9475 28.8035L16.2217 27.2851C16.9795 26.3833 17.34 25.2366 17.2368 24.0562C17.1335 22.8741 16.5782 21.8058 15.6734 21.0477C14.7693 20.2903 13.6216 19.9304 12.4421 20.0342C11.2622 20.1381 10.1953 20.6933 9.43852 21.5966L8.16115 23.1187C6.90566 24.6229 6.82049 26.7255 7.80555 28.3068L4.62438 32.105C4.43133 32.3355 4.32865 32.6111 4.30979 32.8897C4.30773 32.9108 4.30637 32.9343 4.30582 32.9606C4.30568 32.966 4.30541 32.9715 4.30541 32.977C4.30541 32.979 4.30527 32.9807 4.30527 32.9829V38.7935H3.62236C1.62518 38.7934 0 40.4186 0 42.4162V44.7727C0 46.7703 1.62518 48.3954 3.62264 48.3954H5.29689L10.2612 67.8275C10.3884 68.3311 10.776 69.8633 12.5478 69.8633H57.4521C59.2118 69.8633 59.6071 68.3365 59.7379 67.8308L64.703 48.3956H66.3774C68.3748 48.3956 70 46.7704 70 44.7728V42.4163C70 40.4186 68.3748 38.7934 66.3774 38.7934ZM59.5271 27.2567C59.1827 27.5453 58.7449 27.6819 58.2921 27.6422C57.84 27.6024 57.4321 27.3909 57.1443 27.0473L55.8712 25.5258C55.2717 24.8124 55.3652 23.7434 56.0796 23.1425C56.4242 22.8542 56.8638 22.7171 57.3172 22.7579C57.7685 22.7981 58.1745 23.0089 58.4626 23.3542L59.7368 24.8724C60.3363 25.5881 60.2422 26.6576 59.5271 27.2567ZM10.2583 24.8738L11.5341 23.3536C11.8223 23.0094 12.2302 22.798 12.6822 22.7582C12.7336 22.7537 12.7847 22.7514 12.8356 22.7514C13.2327 22.7514 13.6121 22.8881 13.9173 23.1437C14.2618 23.4322 14.4732 23.841 14.5128 24.2945C14.5523 24.7466 14.4159 25.184 14.1278 25.5268L12.8506 27.0488C12.5647 27.3913 12.1585 27.6021 11.7072 27.6423C11.2533 27.6834 10.8138 27.5458 10.4703 27.2582C9.7568 26.6581 9.6626 25.5873 10.2583 24.8738ZM34.9979 2.87109C39.4069 2.87109 42.9938 6.45832 42.9938 10.8676V11.8936C40.2578 11.6605 38.0023 10.7938 35.9795 10.0166C34.1641 9.31889 32.3951 8.63912 30.6459 8.63912C29.4481 8.63912 28.2595 8.95809 27.0718 9.80848C27.5918 5.89791 30.9481 2.87109 34.9979 2.87109ZM27.0022 16.6503V13.7573C29.4376 10.4321 31.2251 11.1188 34.9986 12.569C37.1484 13.395 39.7611 14.398 42.9938 14.6355V16.6504C42.9938 20.0092 37.7943 23.5618 34.9979 23.5618C32.2018 23.5617 27.0022 20.0092 27.0022 16.6503ZM42.3996 25.7268L38.6431 29.1915L37.0478 25.9816C38.2941 25.6292 39.626 24.9949 40.863 24.1546L42.3996 25.7268ZM32.9481 25.9815L31.3529 29.1914L27.597 25.7272L29.1346 24.1556C30.3713 24.9955 31.7025 25.6293 32.9481 25.9815ZM25.3987 27.4196L30.839 32.4373C31.0937 32.6724 31.4255 32.7995 31.7659 32.7995C31.8484 32.7995 31.9313 32.792 32.0138 32.7768C32.4371 32.6989 32.7988 32.4261 32.9904 32.0407L34.9981 28.0008L37.0059 32.0407C37.1973 32.4261 37.5592 32.6987 37.9825 32.7768C38.4062 32.8549 38.8408 32.7288 39.1573 32.4373L44.5977 27.4196C48.1249 29.294 49.1226 31.7706 49.2276 38.7934H20.7688C20.8738 31.7706 21.8716 29.294 25.3987 27.4196ZM67.2656 44.7727C67.2656 45.2625 66.8672 45.6611 66.3774 45.6611H41.1328C40.3778 45.6611 39.7656 46.2733 39.7656 47.0282C39.7656 47.7832 40.3778 48.3954 41.1328 48.3954H61.8808L57.0951 67.1289L12.9049 67.1288L8.11904 48.3956H28.8516C29.6066 48.3956 30.2188 47.7833 30.2188 47.0284C30.2188 46.2734 29.6066 45.6612 28.8516 45.6612H3.62264C3.14125 45.6612 2.73438 45.2543 2.73438 44.7728V42.4163C2.73438 41.9348 3.14125 41.5279 3.62264 41.5279H66.3774C66.8587 41.5279 67.2656 41.9348 67.2656 42.4163V44.7727Z" fill="white"/>
<path d="M34.9941 48.3955H34.998C35.7529 48.3955 36.3632 47.7833 36.3632 47.0283C36.3632 46.2734 35.7491 45.6611 34.994 45.6611C34.2389 45.6611 33.6268 46.2734 33.6268 47.0283C33.6268 47.7833 34.2392 48.3955 34.9941 48.3955Z" fill="white"/>
</g>
<defs>
<clipPath id="clip0_37_942">
<rect width="70" height="70" fill="white"/>
</clipPath>
</defs>
</svg>
