<svg width="40" height="40" viewBox="0 0 40 40" fill="none" xmlns="http://www.w3.org/2000/svg">
<g clip-path="url(#clip0_95_377)">
<path d="M7.33365 26.5597C7.08173 26.308 6.67336 26.3078 6.42136 26.5597C6.16944 26.8117 6.16944 27.2201 6.42136 27.472L12.5277 33.5784C12.6537 33.7043 12.8187 33.7673 12.9839 33.7673C13.1489 33.7673 13.3141 33.7043 13.4401 33.5784C13.692 33.3264 13.692 32.9181 13.4401 32.6661L7.33365 26.5597Z" fill="#2A07F9"/>
<path d="M39.9445 4.59542C39.9618 4.52093 40.3497 2.75424 38.7977 1.20222C37.2457 -0.34971 35.4791 0.037929 35.4046 0.0554747C35.2871 0.0826533 35.1796 0.142429 35.0942 0.227663L34.8465 0.475367L34.6945 0.323304C34.4425 0.0714722 34.0342 0.0713862 33.7823 0.32339C33.5303 0.575308 33.5303 0.983761 33.7824 1.23559L33.9343 1.38757L33.2475 2.07443L33.0954 1.92237C32.8434 1.67054 32.4351 1.67045 32.1832 1.92245C31.9313 2.17437 31.9313 2.58283 32.1833 2.83466L32.3353 2.98663L31.6484 3.6735L31.4963 3.52143C31.2443 3.2696 30.836 3.2696 30.5841 3.52143C30.3321 3.77344 30.3321 4.1818 30.5841 4.43372L30.8635 4.71316L29.8986 6.64301L22.952 13.3299C21.5292 12.2321 18.7183 10.6384 15.7903 12.2057C13.8386 13.2477 13.3189 14.5755 12.8605 15.7469C12.4952 16.6803 12.1798 17.4864 11.1925 18.218C10.7333 18.5579 9.88549 18.7269 8.9038 18.9226C6.45127 19.4114 3.09248 20.0809 0.88534 24.1608C-1.7441 29.0223 2.15482 33.7346 3.95523 35.537L4.46603 36.047C5.8346 37.4155 8.88728 39.9999 12.4111 39.9999C13.5198 39.9998 14.6751 39.744 15.8392 39.114C19.9193 36.907 20.5889 33.549 21.0777 31.097C21.2733 30.1156 21.4423 29.268 21.7821 28.809C22.5136 27.8214 23.3198 27.5058 24.2533 27.1403C25.425 26.6816 26.7531 26.1617 27.7942 24.2106C29.3616 21.2822 27.7675 18.4712 26.6694 17.0484L33.3552 10.1029L35.2871 9.13691L35.5661 9.41583C35.6921 9.54175 35.8571 9.60471 36.0222 9.60471C36.1872 9.60471 36.3524 9.54175 36.4784 9.41575C36.7303 9.16383 36.7303 8.75538 36.4783 8.50354L36.3263 8.35157L37.0132 7.66471L37.1651 7.81668C37.2911 7.9426 37.4563 8.00556 37.6213 8.00556C37.7864 8.00556 37.9515 7.9426 38.0775 7.81668C38.3294 7.56468 38.3294 7.15631 38.0775 6.90439L37.9255 6.75242L38.6123 6.06564L38.7643 6.21762C38.8903 6.34353 39.0554 6.40649 39.2205 6.40649C39.3855 6.40649 39.5507 6.34353 39.6767 6.21762C39.9286 5.96561 39.9286 5.55725 39.6767 5.30533L39.5247 5.15335L39.7723 4.90573C39.8575 4.82041 39.9173 4.7129 39.9445 4.59542ZM26.6564 23.6026C25.8392 25.1342 24.8864 25.5073 23.7831 25.9391C22.8056 26.3218 21.6978 26.7555 20.7453 28.0414C20.2337 28.7327 20.0384 29.7114 19.8125 30.8449C19.3491 33.1687 18.7725 36.0607 15.2253 37.9795C11.1242 40.1989 6.97291 36.7294 5.37918 35.1357L4.86588 34.6234C3.27172 33.0275 -0.196643 28.8733 2.01996 24.7748C3.9388 21.2279 6.83143 20.6513 9.15589 20.1879C10.2896 19.962 11.2686 19.7668 11.9602 19.2548C13.2457 18.3021 13.6792 17.1944 14.0618 16.2172C14.4935 15.1141 14.8663 14.1616 16.3984 13.3436C18.5893 12.1708 20.7888 13.3321 22.0108 14.2359L17.8297 18.2607C17.7686 18.258 17.7073 18.2562 17.6457 18.2562C16.5467 18.2562 15.5145 18.6832 14.7396 19.458C13.9649 20.2311 13.5383 21.2614 13.5385 22.3589C13.5387 23.4565 13.9657 24.4866 14.7399 25.2585C15.5138 26.0336 16.5446 26.4604 17.6426 26.4604C18.7406 26.4604 19.7709 26.0335 20.5424 25.2598C21.3166 24.4889 21.7437 23.46 21.745 22.3625C21.7451 22.2977 21.7434 22.2331 21.7405 22.1689L25.7636 17.9896C26.6675 19.2116 27.8293 21.4112 26.6564 23.6026ZM18.0012 19.5692C18.618 19.6461 19.1875 19.9215 19.6319 20.3649C20.0771 20.8105 20.3537 21.3804 20.4315 21.9975C20.4322 22.0041 20.433 22.0106 20.4339 22.0172C20.4474 22.1303 20.455 22.245 20.4548 22.3609C20.4538 23.1133 20.1617 23.8181 19.6304 24.3472C19.1012 24.878 18.3951 25.1702 17.6425 25.1702C16.8895 25.1702 16.1828 24.8779 15.6517 24.3459C15.1211 23.8168 14.8287 23.111 14.8286 22.3587C14.8285 21.6064 15.1206 20.9005 15.6513 20.3708C16.183 19.8392 16.8912 19.5464 17.6457 19.5464C17.759 19.5464 17.8711 19.5538 17.9819 19.5669C17.9882 19.5676 17.9947 19.5685 18.0012 19.5692ZM21.3871 20.6757C21.1855 20.2258 20.9025 19.8114 20.5438 19.4524C20.186 19.0954 19.7728 18.8137 19.3241 18.6129L30.4169 7.93477L32.0641 9.58398L21.3871 20.6757ZM38.7075 4.14594L38.1578 4.69562C38.1572 4.69622 38.1566 4.69665 38.1561 4.69716C38.1555 4.69777 38.1551 4.69837 38.1546 4.69888L36.5588 6.29468C36.5582 6.29528 36.5576 6.29571 36.5571 6.29623C36.5565 6.29683 36.556 6.29743 36.5555 6.29795L35.0306 7.82287L33.0952 8.79055L31.2105 6.9037L32.1785 4.96783L35.8535 1.29279C36.2077 1.26681 37.0739 1.30277 37.8855 2.11442C38.6991 2.92815 38.7333 3.79666 38.7075 4.14594Z" fill="#2A07F9"/>
</g>
<defs>
<clipPath id="clip0_95_377">
<rect width="40" height="40" fill="white"/>
</clipPath>
</defs>
</svg>
