<svg width="80" height="80" viewBox="0 0 80 80" fill="none" xmlns="http://www.w3.org/2000/svg">
<path d="M46.0103 57.5637L28.3095 72.7303L25.5734 75.0745L24.0231 73.265C22.7622 71.7934 20.547 71.6225 19.0755 72.8836L17.9133 73.8792L13.2908 68.4842L14.453 67.4886C15.9245 66.2276 16.0955 64.0125 14.8344 62.5409C13.5734 61.0693 11.3583 60.8984 9.88672 62.1595L8.72453 63.1551L4.10188 57.76L6.22328 56.0776L33.6209 22.7514L51.6733 7.2834L54.4261 4.9248L55.9764 6.73434C57.2373 8.2059 59.4525 8.37684 60.9241 7.11574L62.0862 6.12012L66.7089 11.5153L65.5467 12.5109C64.0752 13.7718 63.9042 15.987 65.1653 17.4586C66.4263 18.9301 68.6414 19.1011 70.113 17.84L71.2752 16.8443L75.8978 22.2395L73.7766 24.1826L46.0103 57.5637Z" fill="#D7D5D9"/>
<path d="M54.0103 57.2482H9.84844H6.22344V54.8654C6.22344 52.9276 4.6525 51.3565 2.71453 51.3565H1.18422V44.2518H2.71453C4.65234 44.2518 6.22344 42.6808 6.22344 40.7429C6.22344 38.8051 4.6525 37.234 2.71453 37.234H1.18422V30.1293H2.71453C4.65234 30.1293 6.22344 28.5583 6.22344 26.6204V22.7515H9.84844H20.9222H29.8027H70.1516H73.7766V25.1343C73.7766 27.0721 75.3475 28.6432 77.2855 28.6432H78.8158V35.7479H77.2855C75.3476 35.7479 73.7766 37.3188 73.7766 39.2568C73.7766 41.1946 75.3475 42.7657 77.2855 42.7657H78.8158V49.8704H77.2855C75.3476 49.8704 73.7766 51.4413 73.7766 53.3793V57.2482H70.1516H64.4042H54.0103Z" fill="#77757E"/>
<path d="M33.1261 28.3032H66.8591V51.6967H13.1409V28.3032H24.0755H33.1261Z" fill="#FFDA44"/>
<path d="M24.4802 34.8169C24.9131 34.8169 25.1141 35.2808 25.1141 35.7136C25.1141 36.1928 24.8822 36.6258 24.4802 36.6258H22.223V45.4846C22.223 45.9021 21.7128 46.1185 21.218 46.1185C20.708 46.1185 20.2131 45.9021 20.2131 45.4846V36.6258H17.9403C17.5383 36.6258 17.3064 36.2083 17.3064 35.7136C17.3064 35.2808 17.5073 34.8169 17.9403 34.8169H24.4802Z" fill="black"/>
<path d="M26.2117 35.4352C26.2117 35.0024 26.7064 34.8169 27.2166 34.8169C27.7114 34.8169 28.2214 35.0024 28.2214 35.4352V45.4846C28.2214 45.9021 27.7114 46.1185 27.2166 46.1185C26.7064 46.1185 26.2117 45.9021 26.2117 45.4846V35.4352Z" fill="black"/>
<path d="M33.6019 36.5791C32.5659 36.5791 31.9786 37.1511 31.9786 38.3572V42.6706C31.9786 43.8764 32.5661 44.4486 33.6328 44.4486C35.0397 44.4486 35.1633 43.4438 35.2097 42.7944C35.2406 42.3152 35.6736 42.1605 36.1992 42.1605C36.8948 42.1605 37.2197 42.3613 37.2197 43.15C37.2197 45.0208 35.6891 46.2113 33.5245 46.2113C31.5766 46.2113 29.9686 45.2527 29.9686 42.6708V38.3574C29.9686 35.7753 31.5919 34.8169 33.5398 34.8169C35.6888 34.8169 37.2195 35.9608 37.2195 37.7544C37.2195 38.5585 36.8947 38.7439 36.2145 38.7439C35.6427 38.7439 35.225 38.5739 35.2097 38.11C35.1788 37.6305 35.0705 36.5791 33.6019 36.5791Z" fill="black"/>
<path d="M38.5795 35.4352C38.5795 35.0024 39.0742 34.8169 39.5844 34.8169C40.0792 34.8169 40.5892 35.0024 40.5892 35.4352V39.656L43.9288 35.1106C44.0833 34.8942 44.2689 34.8169 44.4852 34.8169C44.9953 34.8169 45.6447 35.3425 45.6447 35.8528C45.6447 35.961 45.6292 36.1 45.5211 36.2392L42.7538 39.7025L46.1242 44.8353C46.2014 44.9436 46.2323 45.0672 46.2323 45.191C46.2323 45.6858 45.6141 46.1958 45.0266 46.1958C44.7636 46.1958 44.5009 46.0875 44.3309 45.8094L41.4244 41.4031L40.5894 42.4544V45.4846C40.5894 45.9021 40.0794 46.1185 39.5845 46.1185C39.0744 46.1185 38.5797 45.9021 38.5797 45.4846V35.4352H38.5795Z" fill="black"/>
<path d="M49.123 39.6711H51.4731C51.8752 39.6711 52.107 40.0577 52.107 40.4752C52.107 40.8308 51.9061 41.2483 51.4731 41.2483H49.123V44.356H53.4984C53.9005 44.356 54.1323 44.7735 54.1323 45.2527C54.1323 45.6702 53.9314 46.1185 53.4984 46.1185H47.9945C47.5461 46.1185 47.1133 45.9021 47.1133 45.4846V35.4508C47.1133 35.0333 47.5461 34.8169 47.9945 34.8169H53.4984C53.9313 34.8169 54.1323 35.2653 54.1323 35.6827C54.1323 36.1619 53.9005 36.5794 53.4984 36.5794H49.123V39.6711Z" fill="black"/>
<path d="M61.7386 34.8169C62.1716 34.8169 62.3725 35.2808 62.3725 35.7136C62.3725 36.1928 62.1406 36.6258 61.7386 36.6258H59.4814V45.4846C59.4814 45.9021 58.9713 46.1185 58.4764 46.1185C57.9664 46.1185 57.4716 45.9021 57.4716 45.4846V36.6258H55.1988C54.7967 36.6258 54.5648 36.2083 54.5648 35.7136C54.5648 35.2808 54.7658 34.8169 55.1988 34.8169H61.7386Z" fill="black"/>
<g opacity="0.19">
<path d="M78.043 35.7484H79.5733V28.6437H78.043C76.1052 28.6437 74.5341 27.0727 74.5341 25.1348V22.752H70.9091H65.5712C56.6444 49.921 39.193 50.9837 29.2234 57.2485H54.768H65.1617H70.9091H74.5341V53.3798C74.5341 51.442 76.105 49.8709 78.043 49.8709H79.5733V42.7662H78.043C76.1052 42.7662 74.5341 41.1952 74.5341 39.2573C74.5341 37.3195 76.105 35.7484 78.043 35.7484Z" fill="#3E3B43"/>
</g>
<path d="M77.2856 36.9325H78.8158C79.47 36.9325 80 36.4025 80 35.7483V28.6436C80 27.9894 79.47 27.4594 78.8158 27.4594H77.2856C76.0037 27.4594 74.9609 26.4166 74.9609 25.1347V24.7041L76.698 23.113C77.1689 22.6816 77.213 21.9544 76.7975 21.4692L72.1748 16.0741C71.9705 15.8355 71.6797 15.688 71.3666 15.6639C71.0528 15.6377 70.7433 15.7411 70.5052 15.9453L69.3431 16.9411C68.3697 17.775 66.8991 17.6616 66.0652 16.6883C65.6611 16.2169 65.4648 15.6159 65.5127 14.9969C65.5603 14.3778 65.8462 13.8144 66.318 13.4103L67.48 12.4145C67.9767 11.9891 68.0344 11.2414 67.6088 10.7448L62.9859 5.34984C62.5606 4.85343 61.813 4.79547 61.3163 5.22109L60.1541 6.21672C59.6825 6.62078 59.082 6.81734 58.4628 6.76922C57.8437 6.72156 57.2803 6.43562 56.8762 5.9639L55.3259 4.15437C55.1216 3.91578 54.8308 3.76828 54.5177 3.74422C54.2034 3.72015 53.8945 3.82109 53.6562 4.02562L33.1833 21.5675H29.8027C29.1484 21.5675 28.6184 22.0975 28.6184 22.7517C28.6184 23.4059 29.1484 23.9359 29.8027 23.9359H72.5925V25.1347C72.5925 27.7225 74.6978 29.8278 77.2856 29.8278H77.6316V34.5641H77.2856C74.6978 34.5641 72.5925 36.6694 72.5925 39.2572C72.5925 41.845 74.6978 43.9503 77.2856 43.9503H77.6316V48.6866H77.2856C74.6978 48.6866 72.5925 50.7917 72.5925 53.3795V56.0642H64.4044C63.7502 56.0642 63.2202 56.5942 63.2202 57.2484C63.2202 57.9027 63.7502 58.4327 64.4044 58.4327H73.7767C74.4309 58.4327 74.9609 57.9027 74.9609 57.2484V53.3795C74.9609 52.098 76.0037 51.055 77.2856 51.055H78.8158C79.47 51.055 80 50.525 80 49.8708V42.7661C80 42.1119 79.47 41.5819 78.8158 41.5819H77.2856C76.0037 41.5819 74.9609 40.5391 74.9609 39.2572C74.9609 37.9753 76.0037 36.9325 77.2856 36.9325ZM36.8234 21.5675L54.2978 6.595L55.0777 7.50531C55.8931 8.45734 57.0308 9.03468 58.2806 9.13093C59.5303 9.22703 60.743 8.83125 61.695 8.01562L61.958 7.79047L65.0397 11.3869L64.7769 11.6122C62.8119 13.2958 62.5828 16.2644 64.2667 18.2295C65.9506 20.1945 68.9192 20.4234 70.8841 18.7397L71.1469 18.5144L73.763 21.5675H36.8234Z" fill="black"/>
<path d="M54.0103 56.0641H7.40766V54.8655C7.40766 52.2777 5.30234 50.1724 2.71453 50.1724H2.36844V45.4361H2.71453C5.30234 45.4361 7.40766 43.3308 7.40766 40.743C7.40766 38.1552 5.30234 36.0499 2.71453 36.0499H2.36844V31.3136H2.71453C5.30234 31.3136 7.40766 29.2083 7.40766 26.6205V23.9358H20.9222C21.5764 23.9358 22.1064 23.4058 22.1064 22.7516C22.1064 22.0974 21.5764 21.5674 20.9222 21.5674H6.22344C5.56922 21.5674 5.03922 22.0974 5.03922 22.7516V26.6205C5.03922 27.9024 3.99641 28.9452 2.71453 28.9452H1.18422C0.53 28.9452 0 29.4752 0 30.1294V37.2341C0 37.8883 0.53 38.4183 1.18422 38.4183H2.71453C3.99641 38.4183 5.03922 39.4611 5.03922 40.743C5.03922 42.025 3.99641 43.0677 2.71453 43.0677H1.18422C0.53 43.0677 0 43.5977 0 44.2519V51.3566C0 52.0108 0.53 52.5408 1.18422 52.5408H2.71453C3.99641 52.5408 5.03922 53.5836 5.03922 54.8655V55.5058L3.36609 56.8327C3.11375 57.0327 2.95406 57.3268 2.92297 57.6469C2.89219 57.9672 2.99312 58.2866 3.20266 58.531L7.82516 63.9261C8.02953 64.1647 8.32031 64.3122 8.63344 64.3363C8.94656 64.3624 9.25656 64.2593 9.49484 64.0549L10.657 63.0591C11.1286 62.6549 11.7294 62.4574 12.3483 62.5066C12.9673 62.5543 13.5308 62.8402 13.9348 63.3119C14.7689 64.2854 14.6555 65.7558 13.682 66.5899L12.52 67.5855C12.0233 68.011 11.9656 68.7586 12.3913 69.2552L17.0138 74.6504C17.4392 75.1471 18.1869 75.205 18.6834 74.7791L19.8456 73.7835C20.317 73.3794 20.9195 73.1827 21.5369 73.231C22.1559 73.2786 22.7194 73.5646 23.1234 74.0363L24.6737 75.8457C24.908 76.1189 25.2398 76.2594 25.5736 76.2594C25.8463 76.2594 26.1202 76.1658 26.3434 75.9744L46.7803 58.4636C46.7917 58.4538 46.8016 58.4432 46.8127 58.433H54.0097C54.6639 58.433 55.1939 57.903 55.1939 57.2488C55.1939 56.5946 54.6645 56.0641 54.0103 56.0641ZM25.7023 73.405L24.9225 72.4949C24.107 71.543 22.9695 70.9655 21.7195 70.8693C20.4697 70.7722 19.2572 71.1689 18.3052 71.9846L18.0422 72.2097L14.9605 68.6132L15.2233 68.388C16.1753 67.5724 16.7527 66.4349 16.8489 65.1849C16.9452 63.935 16.5492 62.7224 15.7336 61.7705C14.9181 60.8186 13.7806 60.2411 12.5306 60.1449C11.2811 60.05 10.0683 60.4447 9.11625 61.2602L8.85328 61.4855L6.23703 58.4324H43.1766L25.7023 73.405Z" fill="black"/>
<path d="M11.9567 28.3034V51.6968C11.9567 52.351 12.4867 52.881 13.1409 52.881H66.8594C67.5136 52.881 68.0436 52.351 68.0436 51.6968V28.3034C68.0436 27.6491 67.5136 27.1191 66.8594 27.1191H33.1261C32.4719 27.1191 31.9419 27.6491 31.9419 28.3034C31.9419 28.9576 32.4719 29.4876 33.1261 29.4876H65.675V50.5126H14.3252V29.4876H24.0755C24.7297 29.4876 25.2597 28.9576 25.2597 28.3034C25.2597 27.6491 24.7297 27.1191 24.0755 27.1191H13.1409C12.4867 27.1191 11.9567 27.6495 11.9567 28.3034Z" fill="black"/>
</svg>
