<svg width="100" height="100" viewBox="0 0 100 100" fill="none" xmlns="http://www.w3.org/2000/svg">
<g clip-path="url(#clip0_63_2451)">
<path fill-rule="evenodd" clip-rule="evenodd" d="M49.9973 2.14844C42.6451 2.14844 36.6215 8.16699 36.6215 15.5252V19.0299C43.9627 8.39922 49.8477 18.9912 63.3728 19.0299V15.5252C63.373 8.16699 57.3551 2.14844 49.9973 2.14844Z" fill="#FFCD69"/>
<path fill-rule="evenodd" clip-rule="evenodd" d="M63.373 19.0302C49.8479 18.9915 43.9627 8.39956 36.6217 19.0302V23.7863C36.6217 26.8205 38.7088 29.7494 41.4105 31.9308C44.1566 34.1621 47.5447 35.6128 49.9975 35.6128C52.4557 35.6128 55.8383 34.1623 58.5898 31.9308C61.2859 29.7494 63.3732 26.8205 63.3732 23.7863V19.0302H63.373Z" fill="white"/>
<path fill-rule="evenodd" clip-rule="evenodd" d="M41.4103 31.9307L36.6215 36.8252L45.3799 44.9033L49.9971 35.6127C47.5447 35.6127 44.1564 34.1621 41.4103 31.9307Z" fill="white"/>
<path fill-rule="evenodd" clip-rule="evenodd" d="M45.3799 44.9034L36.6215 36.8253C28.9094 40.3966 27.7025 45.3243 27.7025 57.3722H72.292C72.292 45.3241 71.0852 40.3964 63.373 36.8253L54.6147 44.9034L49.9973 35.6128L45.3799 44.9034Z" fill="#FF7B79"/>
<path fill-rule="evenodd" clip-rule="evenodd" d="M58.5897 31.9307C55.8381 34.1619 52.4555 35.6127 49.9973 35.6127L54.6147 44.9033L63.373 36.8252L58.5897 31.9307Z" fill="white"/>
<path fill-rule="evenodd" clip-rule="evenodd" d="M27.7025 57.3723H8.10391H5.1752C3.84649 57.3723 2.69492 58.1861 2.20781 59.3434V65.2123C2.69492 66.3695 3.84649 67.1834 5.1752 67.1834H9.08398H90.916H94.8246C96.5963 67.1834 98.0467 65.7383 98.0467 63.9609V60.5945C98.0467 58.8229 96.5961 57.3721 94.8246 57.3721H91.8904H72.292H27.7025V57.3723Z" fill="#FFCD69"/>
<path fill-rule="evenodd" clip-rule="evenodd" d="M90.916 67.1836H9.08398L16.5525 96.4178C16.7906 97.359 17.0619 97.8518 17.9256 97.8518H82.0748C82.9385 97.8518 83.2043 97.359 83.4478 96.4178L90.916 67.1836ZM28.76 85.9367V79.0988C28.76 77.7312 29.8783 76.6129 31.2514 76.6129H68.7488C70.1162 76.6129 71.2402 77.7312 71.2402 79.0988V85.9367C71.2402 87.3098 70.1164 88.4283 68.7488 88.4283H31.2514C29.8783 88.4281 28.76 87.3098 28.76 85.9367Z" fill="#F8F8F8"/>
<path fill-rule="evenodd" clip-rule="evenodd" d="M68.7486 76.6123H31.2514C29.8783 76.6123 28.76 77.7307 28.76 79.0982V85.9361C28.76 87.3092 29.8783 88.4277 31.2514 88.4277H68.7488C70.1162 88.4277 71.2402 87.3094 71.2402 85.9361V79.0982C71.24 77.7307 70.1162 76.6123 68.7486 76.6123Z" fill="white"/>
<path fill-rule="evenodd" clip-rule="evenodd" d="M14.9801 32.1079L13.1586 34.2784C11.6195 36.1222 11.8631 38.8906 13.7012 40.4353C15.5447 41.98 18.3184 41.7365 19.8576 39.8927L21.6791 37.7222C23.2238 35.8839 22.9801 33.1101 21.1365 31.5654C19.2928 30.0204 16.5246 30.2642 14.9801 32.1079Z" fill="white"/>
<path fill-rule="evenodd" clip-rule="evenodd" d="M78.858 31.5652C77.0199 33.1099 76.7764 35.884 78.3209 37.7221L80.1367 39.8926C81.6814 41.7363 84.4494 41.9799 86.2932 40.4351C88.1367 38.8904 88.3803 36.1221 86.8357 34.2783L85.0143 32.1078C83.4754 30.2642 80.7016 30.0205 78.858 31.5652Z" fill="white"/>
<path d="M26.8068 79.0984V85.9363C26.8068 88.3871 28.8006 90.3811 31.2514 90.3811H68.7486C71.1994 90.3811 73.1932 88.3871 73.1932 85.9363V79.0984C73.1932 76.6508 71.1994 74.6592 68.7486 74.6592H31.2514C28.8006 74.6594 26.8068 76.6508 26.8068 79.0984ZM69.2869 79.0984V85.9363C69.2869 86.2281 69.0404 86.4748 68.7486 86.4748H31.2514C30.9545 86.4748 30.7131 86.2334 30.7131 85.9363V79.0984C30.7131 78.8096 30.9596 78.5654 31.2514 78.5654H68.7486C69.0404 78.5656 69.2869 78.8098 69.2869 79.0984Z" fill="#171B2A"/>
<path d="M94.8248 55.4191H93.8438V47.1182C93.8438 47.1141 93.8438 47.1107 93.8438 47.1066C93.8438 47.1041 93.8438 47.1014 93.8438 47.0988C93.8432 46.9186 93.8338 46.8209 93.8133 46.7824C93.7564 46.4549 93.617 46.1373 93.3881 45.8641L88.8455 40.4404C90.2574 38.1811 90.1346 35.1742 88.3322 33.0227L86.5139 30.8562C85.4359 29.565 83.9143 28.7711 82.2289 28.6209C80.5395 28.4703 78.8975 28.9844 77.6037 30.0682C77.6031 30.0688 77.6023 30.0693 77.6016 30.0701C74.9314 32.3141 74.5836 36.3103 76.8232 38.9756L78.64 41.1469C79.7221 42.4385 81.2465 43.2318 82.932 43.3803C83.1225 43.3971 83.3119 43.4055 83.5006 43.4055C84.3154 43.4055 85.1107 43.2496 85.8525 42.9506L89.9377 47.8281V55.4193H74.2312C74.075 44.45 72.4244 39.0008 64.5309 35.2156L61.3965 32.0084C63.7057 29.6779 65.3264 26.8086 65.3264 23.7863V19.0301V15.5252C65.3262 7.07227 58.4496 0.195312 49.9971 0.195312C41.5445 0.195312 34.6684 7.07227 34.6684 15.5252V19.0299V23.7861C34.6684 26.8094 36.29 29.6793 38.6004 32.0102L35.4645 35.215C27.5703 39.0004 25.9197 44.4496 25.7635 55.4191H10.057V47.8279L14.1422 42.9504C14.8842 43.2494 15.6799 43.4053 16.4951 43.4053C16.6863 43.4053 16.8785 43.3967 17.0713 43.3795C18.7568 43.2293 20.2787 42.4355 21.3535 41.1479L23.1738 38.9787C24.2564 37.6904 24.7715 36.0523 24.624 34.366C24.4764 32.6773 23.6832 31.1512 22.3906 30.0682C21.099 28.9861 19.4594 28.4721 17.7744 28.6203C16.0889 28.7687 14.5646 29.5619 13.4836 30.8523L11.6588 33.0268C9.86523 35.1756 9.74355 38.1793 11.1508 40.4383L6.60625 45.8643C6.33047 46.1936 6.18379 46.5873 6.15684 46.9854C6.15391 47.0154 6.15195 47.049 6.15117 47.0865C6.15098 47.0943 6.15059 47.1021 6.15059 47.11C6.15059 47.1129 6.15039 47.1152 6.15039 47.1184V55.4193H5.1748C2.32168 55.4191 0 57.7408 0 60.5945V63.9609C0 66.8147 2.32168 69.1363 5.1752 69.1363H7.56699L14.6588 96.8965C14.8406 97.6158 15.3943 99.8047 17.9254 99.8047H82.0744C84.5883 99.8047 85.1529 97.6236 85.3398 96.9012L92.4328 69.1365H94.8248C97.6783 69.1365 100 66.8148 100 63.9611V60.5947C100 57.7408 97.6783 55.4191 94.8248 55.4191ZM85.0387 38.9381C84.5467 39.3504 83.9213 39.5455 83.2744 39.4889C82.6285 39.432 82.0459 39.1299 81.6348 38.6391L79.816 36.4654C78.9596 35.4463 79.0932 33.9191 80.1137 33.0607C80.6061 32.6488 81.234 32.4529 81.8816 32.5113C82.5264 32.5687 83.1064 32.8699 83.518 33.3631L85.3383 35.532C86.1947 36.5545 86.0604 38.0822 85.0387 38.9381ZM14.6547 35.534L16.4773 33.3623C16.8891 32.8705 17.4717 32.5686 18.1174 32.5117C18.1908 32.5053 18.2639 32.502 18.3365 32.502C18.9039 32.502 19.4459 32.6973 19.8818 33.0625C20.374 33.4746 20.676 34.0586 20.7326 34.7064C20.7891 35.3523 20.5941 35.9771 20.1826 36.4668L18.358 38.6412C17.9496 39.1305 17.3693 39.4316 16.7246 39.4891C16.0762 39.5477 15.4482 39.3512 14.9576 38.9402C13.9383 38.083 13.8037 36.5533 14.6547 35.534ZM49.9971 4.10156C56.2955 4.10156 61.4197 9.22617 61.4197 15.5252V16.9908C57.5111 16.6578 54.2891 15.4197 51.3992 14.3094C48.8059 13.3127 46.2787 12.3416 43.7799 12.3416C42.0687 12.3416 40.3707 12.7973 38.674 14.0121C39.4168 8.42558 44.2115 4.10156 49.9971 4.10156ZM38.5746 23.7861V19.6533C42.0537 14.9029 44.6072 15.884 49.998 17.9557C53.0691 19.1357 56.8016 20.5686 61.4197 20.9078V23.7863C61.4197 28.5846 53.9918 33.6598 49.9971 33.6598C46.0025 33.6596 38.5746 28.5846 38.5746 23.7861ZM60.5709 36.7525L55.2045 41.7021L52.9254 37.1166C54.7059 36.6131 56.6086 35.707 58.3758 34.5066L60.5709 36.7525ZM47.0688 37.1164L44.7898 41.702L39.4242 36.7531L41.6209 34.508C43.3875 35.7078 45.2893 36.6133 47.0688 37.1164ZM36.2838 39.1709L44.0557 46.3391C44.4195 46.6748 44.8936 46.8564 45.3799 46.8564C45.4977 46.8564 45.6162 46.8457 45.734 46.824C46.3387 46.7127 46.8555 46.323 47.1291 45.7725L49.9973 40.0012L52.8656 45.7725C53.1391 46.323 53.6561 46.7125 54.2607 46.824C54.866 46.9355 55.4869 46.7555 55.9391 46.3391L63.7109 39.1709C68.7498 41.8486 70.1752 45.3865 70.3252 55.4191H29.6697C29.8197 45.3865 31.2451 41.8486 36.2838 39.1709ZM96.0938 63.9609C96.0938 64.6607 95.5246 65.2301 94.8248 65.2301H58.7611C57.6826 65.2301 56.808 66.1047 56.808 67.1832C56.808 68.2617 57.6826 69.1363 58.7611 69.1363H88.4012L81.5645 95.8984L18.4355 95.8982L11.5986 69.1365H41.2166C42.2951 69.1365 43.1697 68.2619 43.1697 67.1834C43.1697 66.1049 42.2951 65.2303 41.2166 65.2303H5.1752C4.4875 65.2303 3.90625 64.649 3.90625 63.9611V60.5947C3.90625 59.9068 4.4875 59.3256 5.1752 59.3256H94.8248C95.5125 59.3256 96.0938 59.9068 96.0938 60.5947V63.9609Z" fill="#171B2A"/>
<path d="M49.9916 69.1367H49.9971C51.0756 69.1367 51.9475 68.2621 51.9475 67.1836C51.9475 66.1051 51.0701 65.2305 49.9914 65.2305C48.9127 65.2305 48.0383 66.1051 48.0383 67.1836C48.0383 68.2621 48.9131 69.1367 49.9916 69.1367Z" fill="#171B2A"/>
</g>
<defs>
<clipPath id="clip0_63_2451">
<rect width="100" height="100" fill="white"/>
</clipPath>
</defs>
</svg>
