<svg width="153" height="35" viewBox="0 0 153 35" fill="none" xmlns="http://www.w3.org/2000/svg">
<path d="M153 0.0908203V34.9999H145.637V0.0908203H153Z" fill="white"/>
<path d="M139.553 0.0908203V34.9999H133.193L118.042 13.0283H117.787V34.9999H110.424V0.0908203H116.886L131.918 22.0454H132.224V0.0908203H139.553Z" fill="white"/>
<path fill-rule="evenodd" clip-rule="evenodd" d="M66.544 13.603H61.8184V15.559C71.074 15.559 80.3311 15.559 89.5854 15.559C89.3408 14.8374 88.9626 14.1742 88.4788 13.603C87.3539 12.2655 85.6597 11.4171 83.7645 11.4171C81.8706 11.4171 80.1778 12.2655 79.0516 13.603H72.5306C74.1546 9.00547 78.5736 5.70775 83.7645 5.70775C88.9568 5.70775 93.3759 9.00547 94.9998 13.603C95.2218 14.2313 95.3921 14.8861 95.5059 15.559C95.6099 16.1902 95.6662 16.8394 95.6662 17.5012C95.6662 18.2298 95.5987 18.9431 95.4707 19.637H78.0155C78.7565 21.5958 80.4873 23.0754 82.6061 23.4767L100.395 23.4071C101.063 21.5625 101.425 19.5731 101.425 17.5013C101.425 7.83671 93.5179 2.25089e-09 83.7645 2.25089e-09C75.3653 -0.000132091 68.3339 5.8137 66.544 13.603ZM95.3192 30.7352H105.714V28.7792H97.2692H87.2501C86.5345 28.9966 85.7893 29.1469 85.0229 29.2265C84.6096 29.2697 84.1892 29.292 83.7647 29.292C77.9312 29.292 73.0749 25.1277 72.0598 19.6371H66.2348C67.2991 28.2918 74.7439 35 83.7648 35C84.6478 35 85.5152 34.9359 86.3616 34.8132C89.7584 34.3156 92.8403 32.8613 95.3192 30.7352Z" fill="url(#paint0_linear_209_97)"/>
<path d="M35.6129 0.0908203L44.0304 26.6135H44.3534L52.7879 0.0908203H60.9502L48.9448 34.9999H39.456L27.4336 0.0908203H35.6129Z" fill="white"/>
<path d="M0 34.9999V0.0908203H23.4667V6.17605H7.36311V14.4942H22.2594V20.5795H7.36311V28.9147H23.5348V34.9999H0Z" fill="white"/>
<defs>
<linearGradient id="paint0_linear_209_97" x1="61.8184" y1="0" x2="109.09" y2="5.38943" gradientUnits="userSpaceOnUse">
<stop stop-color="#F24617"/>
<stop offset="1" stop-color="#FD8900"/>
</linearGradient>
</defs>
</svg>
