<svg width="153" height="35" viewBox="0 0 153 35" fill="none" xmlns="http://www.w3.org/2000/svg">
<path d="M153 0.0909424V35H145.637V0.0909424H153Z" fill="white"/>
<path d="M139.553 0.0909424V35H133.194L118.042 13.0284H117.787V35H110.424V0.0909424H116.886L131.918 22.0455H132.224V0.0909424H139.553Z" fill="white"/>
<path fill-rule="evenodd" clip-rule="evenodd" d="M66.544 13.603H61.8185V15.559C71.0741 15.559 80.3312 15.559 89.5855 15.559C89.3408 14.8374 88.9626 14.1742 88.4789 13.603C87.354 12.2655 85.6598 11.4171 83.7646 11.4171C81.8707 11.4171 80.1779 12.2655 79.0517 13.603H72.5307C74.1547 9.00547 78.5737 5.70775 83.7646 5.70775C88.9569 5.70775 93.376 9.00547 94.9998 13.603C95.2219 14.2313 95.3922 14.8861 95.506 15.559C95.61 16.1902 95.6662 16.8394 95.6662 17.5012C95.6662 18.2298 95.5988 18.9431 95.4708 19.637H78.0156C78.7565 21.5958 80.4874 23.0754 82.6062 23.4767L100.395 23.4071C101.063 21.5625 101.425 19.5731 101.425 17.5013C101.425 7.83671 93.518 2.25089e-09 83.7646 2.25089e-09C75.3654 -0.000132091 68.334 5.8137 66.544 13.603ZM95.3192 30.7352H105.714V28.7792H97.2693H87.2502C86.5346 28.9966 85.7894 29.1469 85.023 29.2265C84.6096 29.2697 84.1893 29.292 83.7648 29.292C77.9312 29.292 73.075 25.1277 72.0599 19.6371H66.2349C67.2992 28.2918 74.744 35 83.7649 35C84.6479 35 85.5153 34.9359 86.3617 34.8132C89.7585 34.3156 92.8404 32.8613 95.3192 30.7352Z" fill="url(#paint0_linear_18_137)"/>
<path d="M35.6125 0.0909424L44.0299 26.6137H44.353L52.7874 0.0909424H60.9498L48.9443 35H39.4556L27.4331 0.0909424H35.6125Z" fill="white"/>
<path d="M0 35V0.0909424H23.4667V6.17617H7.36311V14.4944H22.2594V20.5796H7.36311V28.9148H23.5348V35H0Z" fill="white"/>
<defs>
<linearGradient id="paint0_linear_18_137" x1="61.8185" y1="0" x2="109.09" y2="5.38943" gradientUnits="userSpaceOnUse">
<stop stop-color="#F24617"/>
<stop offset="1" stop-color="#FD8900"/>
</linearGradient>
</defs>
</svg>
