<?xml version="1.0" encoding="UTF-8"?>
<svg version="1.1" xmlns="http://www.w3.org/2000/svg" width="79" height="79">
<path d="M0 0 C10.20391082 6.01707754 18.12138058 14.29316091 21.25 26 C22.88624687 36.38864319 22.74838172 47.27685275 17.12890625 56.4296875 C16.19884766 57.70199219 16.19884766 57.70199219 15.25 59 C14.61964844 59.88945313 13.98929687 60.77890625 13.33984375 61.6953125 C7.30841732 69.24868766 -0.53724516 74.93406171 -10.24121094 76.36816406 C-21.25249595 77.33534419 -31.04081645 76.62851221 -40.75 71 C-40.75 70.34 -40.75 69.68 -40.75 69 C-41.32878906 68.75121094 -41.90757813 68.50242187 -42.50390625 68.24609375 C-49.02250119 64.62969064 -54.09287646 57.25989963 -56.89453125 50.48046875 C-59.35271029 40.47938417 -59.64832377 28.61278893 -55.1875 19.1875 C-53.51171875 16.44140625 -53.51171875 16.44140625 -51.75 14 C-51.22019531 13.24589844 -50.69039062 12.49179688 -50.14453125 11.71484375 C-45.94519974 6.3784011 -40.76842983 3.0360829 -34.75 0 C-33.15865234 -0.80630859 -33.15865234 -0.80630859 -31.53515625 -1.62890625 C-21.93559232 -5.63023677 -9.1936185 -4.3533026 0 0 Z " fill="#72B9E0" transform="translate(57.75,3)"/>
<path d="M0 0 C10.66887513 6.29125931 17.09220679 14.39123791 21.25 26 C21.73770895 29.76546457 21.73363801 33.23837101 21.25 37 C20.46625 36.979375 19.6825 36.95875 18.875 36.9375 C16.26885039 36.81315937 16.26885039 36.81315937 14.25 38 C12.0859375 37.66015625 12.0859375 37.66015625 9.625 37.0625 C8.80773437 36.86785156 7.99046875 36.67320313 7.1484375 36.47265625 C6.52195313 36.31667969 5.89546875 36.16070312 5.25 36 C5.25 34.02 5.25 32.04 5.25 30 C4.55132812 29.82984375 3.85265625 29.6596875 3.1328125 29.484375 C2.22273438 29.24203125 1.31265625 28.9996875 0.375 28.75 C-0.52992187 28.51796875 -1.43484375 28.2859375 -2.3671875 28.046875 C-4.75 27 -4.75 27 -6.0703125 24.890625 C-6.40675781 23.95476563 -6.40675781 23.95476563 -6.75 23 C-6.09 22.34 -5.43 21.68 -4.75 21 C-2.13419521 21.3269756 -0.10921863 21.82039068 2.25 23 C2.25 22.34 2.25 21.68 2.25 21 C0.97125 20.979375 -0.3075 20.95875 -1.625 20.9375 C-2.34429687 20.92589844 -3.06359375 20.91429688 -3.8046875 20.90234375 C-5.83185404 20.87350758 -5.83185404 20.87350758 -7.75 22 C-7.255 24.97 -7.255 24.97 -6.75 28 C-5.0484375 28.4640625 -5.0484375 28.4640625 -3.3125 28.9375 C0.25 30 0.25 30 1.25 31 C1.29063832 32.66617115 1.292721 34.33388095 1.25 36 C-6.37068966 36.29310345 -6.37068966 36.29310345 -9.75 34 C-11.5 32.375 -11.5 32.375 -12.75 31 C-13.08 32.65 -13.41 34.3 -13.75 36 C-16.625 36.1875 -16.625 36.1875 -19.75 36 C-21.83133467 32.877998 -22.0237822 32.06733011 -22 28.5 C-22.00773437 27.33984375 -22.00773437 27.33984375 -22.015625 26.15625 C-21.75 24 -21.75 24 -19.75 21 C-18.574375 21.2475 -18.574375 21.2475 -17.375 21.5 C-14.86791961 22.0623707 -14.86791961 22.0623707 -12.75 22 C-15.57883747 20.58558126 -17.62376745 20.68099668 -20.75 21 C-22.81756129 22.42048316 -22.81756129 22.42048316 -23.75 25 C-24.018168 29.08956205 -23.91964778 32.26485963 -23 36.25 C-22.62025095 41.94623572 -24.73386413 46.73035733 -26.75 52 C-27.74 52 -28.73 52 -29.75 52 C-29.20144652 47.428721 -28.33255197 43.32564205 -26.75 39 C-28.07 38.67 -29.39 38.34 -30.75 38 C-30.234375 37.525625 -29.71875 37.05125 -29.1875 36.5625 C-26.99763016 32.65881898 -27.62293958 29.23619261 -28.75 25 C-30.19014926 22.30861457 -30.19014926 22.30861457 -32.75 21 C-35.08262618 20.94255846 -37.41750457 20.9374739 -39.75 21 C-39.72679688 22.04800781 -39.70359375 23.09601562 -39.6796875 24.17578125 C-39.66092697 25.55468037 -39.64272707 26.9335872 -39.625 28.3125 C-39.59986328 29.34793945 -39.59986328 29.34793945 -39.57421875 30.40429688 C-39.53782206 34.17135396 -39.60621136 35.78431704 -41.75 39 C-44.625 39.125 -44.625 39.125 -47.75 39 C-50.01566343 39.43941523 -50.01566343 39.43941523 -51.75 40 C-51.75 40.99 -51.75 41.98 -51.75 43 C-53.4 42.67 -55.05 42.34 -56.75 42 C-57.4049997 29.37306141 -55.76796093 20.89583165 -47.6875 11.0390625 C-45.19975502 8.42091153 -42.52276682 6.3245725 -39.546875 4.2890625 C-37.72708768 3.08600019 -37.72708768 3.08600019 -36.453125 1.5234375 C-27.30028547 -6.66373547 -10.26467661 -4.86046309 0 0 Z " fill="#1B92CF" transform="translate(57.75,3)"/>
<path d="M0 0 C0.66 0.33 1.32 0.66 2 1 C1.03900391 1.67482422 1.03900391 1.67482422 0.05859375 2.36328125 C-8.23796848 8.53315391 -14.33235125 15.83752857 -17 26 C-17.24000746 29.65991834 -17.24000746 29.65991834 -17.125 33.375 C-17.10695313 34.62023438 -17.08890625 35.86546875 -17.0703125 37.1484375 C-17.04710938 38.08945312 -17.02390625 39.03046875 -17 40 C-15.68 40.33 -14.36 40.66 -13 41 C-13 40.01 -13 39.02 -13 38 C-9.21812119 36.16308743 -7.05431692 35.84162374 -3 37 C-1.74566542 33.23699626 -1.89304578 29.72789091 -1.9375 25.8125 C-1.94201172 25.06291016 -1.94652344 24.31332031 -1.95117188 23.54101562 C-1.96293646 21.69397617 -1.98087135 19.84697787 -2 18 C-0.74058594 17.96132813 0.51882812 17.92265625 1.81640625 17.8828125 C2.87903687 17.85018311 2.87903687 17.85018311 3.96313477 17.81689453 C6 18 6 18 8.9375 19.875 C11.66148722 24.00225336 12.53623307 28.05660141 12 33 C10.5 34.8046875 10.5 34.8046875 9 36 C10.485 36.495 10.485 36.495 12 37 C11.343621 41.48525648 10.29925791 45.66914029 9 50 C9.5775 50.0825 10.155 50.165 10.75 50.25 C16.19808475 52.06602825 18.32284496 57.1033346 20.8515625 61.87890625 C22.06312312 64.19394958 22.06312312 64.19394958 24 67 C16.93080852 67.39847217 11.61038437 66.55885846 5 64 C5.66 59.05 6.32 54.1 7 49 C6.01 49 5.02 49 4 49 C3.87882812 50.04800781 3.75765625 51.09601562 3.6328125 52.17578125 C3.46396055 53.55473886 3.29466659 54.93364239 3.125 56.3125 C3.00705078 57.34793945 3.00705078 57.34793945 2.88671875 58.40429688 C2.44056153 61.95639471 2.02019807 63.9697029 0 67 C-3.63970972 66.88970577 -5.74569721 65.67471786 -8.375 63.3125 C-17.12017066 53.76008282 -19.98970413 44.33830228 -19.76367188 31.62963867 C-19.14941785 20.38981379 -14.19558585 11.62721189 -6 4 C-4.0488564 2.49054385 -2.13463037 1.24953973 0 0 Z " fill="#D7EBF4" transform="translate(19,5)"/>
<path d="M0 0 C10.23 0 20.46 0 31 0 C29.29395475 4.26511313 27.90212286 6.61418999 25 10 C25.96041171 8.89764064 26.91824407 7.79303376 27.875 6.6875 C28.40867188 6.07261719 28.94234375 5.45773438 29.4921875 4.82421875 C31.1640447 2.86501788 31.1640447 2.86501788 33 0 C33.556875 0.185625 34.11375 0.37125 34.6875 0.5625 C37.399133 1.07551165 39.34371039 0.6640724 42 0 C40.83932547 7.67934661 35.97943829 13.87584812 29.9921875 18.65234375 C19.61309603 25.67349386 9.0997433 27.49123727 -3.328125 25.65625 C-6.74713937 24.76433321 -9.35583612 23.32686421 -12 21 C-11.505 19.515 -11.505 19.515 -11 18 C-8.23723823 18.52268466 -5.6739124 19.10869587 -3 20 C7.29701385 21.03113715 17.30488614 21.25869378 26 15 C26 14.67 26 14.34 26 14 C25.33613281 14.37253906 24.67226563 14.74507812 23.98828125 15.12890625 C23.10527344 15.60199219 22.22226562 16.07507813 21.3125 16.5625 C20.44238281 17.03816406 19.57226562 17.51382813 18.67578125 18.00390625 C15.56945776 19.16027485 14.10737421 19.06568691 11 18 C7.41375105 14.30827314 4.65565322 9.86848285 3.5 4.8125 C3.03354363 2.53993811 3.03354363 2.53993811 0 0 Z " fill="#DCE7F3" transform="translate(33,52)"/>
<path d="M0 0 C-0.763125 0.7425 -1.52625 1.485 -2.3125 2.25 C-3.199375 3.1575 -4.08625 4.065 -5 5 C-5.8971875 5.8971875 -5.8971875 5.8971875 -6.8125 6.8125 C-9.22443875 11.25554506 -8.32555221 15.86056727 -7 20.5 C-6.67 21.325 -6.34 22.15 -6 23 C-6.680625 22.835 -7.36125 22.67 -8.0625 22.5 C-11.41577212 21.92923028 -14.60387785 21.96799885 -18 22 C-17.97679688 23.04800781 -17.95359375 24.09601562 -17.9296875 25.17578125 C-17.91092697 26.55468037 -17.89272707 27.9335872 -17.875 29.3125 C-17.84986328 30.34793945 -17.84986328 30.34793945 -17.82421875 31.40429688 C-17.78782206 35.17135396 -17.85621136 36.78431704 -20 40 C-22.875 40.125 -22.875 40.125 -26 40 C-28.26566343 40.43941523 -28.26566343 40.43941523 -30 41 C-30 41.99 -30 42.98 -30 44 C-31.65 43.67 -33.3 43.34 -35 43 C-35.65073627 30.45525079 -34.07060153 21.88386481 -25.98828125 12.10546875 C-18.48828361 4.16342803 -11.06377574 -0.58230399 0 0 Z " fill="#5AB2E0" transform="translate(36,2)"/>
<path d="M0 0 C7.92 0 15.84 0 24 0 C24.33 1.32 24.66 2.64 25 4 C25.7425 4.0825 26.485 4.165 27.25 4.25 C31.4140729 5.38565625 33.10403813 7.4985851 35.2890625 11.16015625 C36.15895249 12.7244321 37.01397745 14.29709753 37.8515625 15.87890625 C39.06312312 18.19394958 39.06312312 18.19394958 41 21 C33.93080852 21.39847217 28.61038437 20.55885846 22 18 C22.66 13.05 23.32 8.1 24 3 C23.01 3 22.02 3 21 3 C20.87882812 4.04800781 20.75765625 5.09601562 20.6328125 6.17578125 C20.46396055 7.55473886 20.29466659 8.93364239 20.125 10.3125 C20.00705078 11.34793945 20.00705078 11.34793945 19.88671875 12.40429688 C19.44056153 15.95639471 19.02019807 17.9697029 17 21 C12.18478333 20.85408434 9.8495571 18.43224332 6.71484375 15.10546875 C2.91037739 10.43438136 0 6.10102861 0 0 Z " fill="#D9E3EE" transform="translate(2,51)"/>
<path d="M0 0 C0.33 0 0.66 0 1 0 C1.52123661 9.03476798 -3.43152854 16.4950256 -9 23.3125 C-16.71525717 31.21936124 -24.92683949 35.23150582 -35.87133789 35.72412109 C-45.21275547 35.8119117 -52.79795726 34.75480738 -61 30 C-61 29.34 -61 28.68 -61 28 C-60.53980469 27.62230469 -60.07960938 27.24460937 -59.60546875 26.85546875 C-57.19490737 24.06954015 -56.91533095 20.84054345 -56.3125 17.3125 C-56.18294922 16.61060547 -56.05339844 15.90871094 -55.91992188 15.18554688 C-55.60278739 13.45892577 -55.29998203 11.72968365 -55 10 C-54.01 10 -53.02 10 -52 10 C-52.14120714 11.93784265 -52.28812873 13.87526955 -52.4375 15.8125 C-52.51871094 16.89144531 -52.59992187 17.97039063 -52.68359375 19.08203125 C-53 22 -53 22 -54 25 C-47.85221129 26.6277833 -42.35987804 27.20190089 -36 27 C-36.5775 26.319375 -37.155 25.63875 -37.75 24.9375 C-44 16.77777778 -44 16.77777778 -44 13 C-44.99 12.67 -45.98 12.34 -47 12 C-46.67 10.02 -46.34 8.04 -46 6 C-41.32915666 4.15848784 -37.22448855 3.75478159 -32.265625 3.875 C-31.54638855 3.88257324 -30.8271521 3.89014648 -30.08612061 3.89794922 C-27.80716036 3.92222312 -25.52872612 3.95950645 -23.25 4 C-20.23438974 4.05309396 -17.219025 4.09307403 -14.203125 4.125 C-13.51043518 4.14159668 -12.81774536 4.15819336 -12.10406494 4.17529297 C-10.40179725 4.19283275 -8.69911799 4.10498103 -7 4 C-6.34 3.34 -5.68 2.68 -5 2 C-3.68 2 -2.36 2 -1 2 C-0.67 1.34 -0.34 0.68 0 0 Z M-45 8 C-44.01 9.32 -43.02 10.64 -42 12 C-41.2975538 13.31483519 -40.62953511 14.64873845 -40 16 C-39.35729925 17.35565623 -38.7114676 18.70983259 -38.0625 20.0625 C-37.74410156 20.73410156 -37.42570312 21.40570313 -37.09765625 22.09765625 C-35.92240315 24.1344828 -34.83673956 25.52969227 -33 27 C-26.73595266 27 -22.23923449 24.21957494 -17 21 C-24.38686918 26.50394174 -29.27564575 28.3347567 -38.5 28.25 C-39.34175781 28.25773437 -40.18351562 28.26546875 -41.05078125 28.2734375 C-45.54014983 28.25929776 -48.87544469 27.9391566 -53 26 C-53.99 26 -54.98 26 -56 26 C-56.33 27.32 -56.66 28.64 -57 30 C-48.37979886 34.61080526 -39.07311634 35.27229837 -29.4375 33.5390625 C-18.36082353 30.1765 -10.61961723 23.55687606 -4.0625 14.25 C-2.71532913 11.81187651 -2.71532913 11.81187651 -3 8 C-4.11375 8.2784375 -4.11375 8.2784375 -5.25 8.5625 C-8 9 -8 9 -12 8 C-14.31 10.97 -16.62 13.94 -19 17 C-19 16 -19 16 -16.5 13.0625 C-13.78920784 10.40066979 -13.78920784 10.40066979 -14 8 C-24.23 8 -34.46 8 -45 8 Z " fill="#B9CEDE" transform="translate(78,44)"/>
<path d="M0 0 C0.99 0.495 0.99 0.495 2 1 C3.87545403 0.99422937 5.75088791 0.94616881 7.625 0.875 C13.18486013 0.80801373 16.97828758 1.68228658 22 4 C21.02180976 5.31322788 20.0424189 6.62556152 19.0625 7.9375 C18.24458984 9.03384766 18.24458984 9.03384766 17.41015625 10.15234375 C15.27004155 12.95642756 15.27004155 12.95642756 13.0390625 13.31640625 C12.24242187 13.39761719 11.44578125 13.47882812 10.625 13.5625 C9.83351563 13.64628906 9.04203125 13.73007812 8.2265625 13.81640625 C3.32317161 14.22072094 3.32317161 14.22072094 1.32421875 12.85546875 C-0.51827851 10.27379855 -0.29814953 8.44757011 -0.1875 5.3125 C-0.16042969 4.31863281 -0.13335938 3.32476562 -0.10546875 2.30078125 C-0.07066406 1.54152344 -0.03585938 0.78226563 0 0 Z " fill="#0384C7" transform="translate(31,10)"/>
<path d="M0 0 C0.66 0.33 1.32 0.66 2 1 C1.03900391 1.67482422 1.03900391 1.67482422 0.05859375 2.36328125 C-8.23796848 8.53315391 -14.33235125 15.83752857 -17 26 C-17.24000746 29.65991834 -17.24000746 29.65991834 -17.125 33.375 C-17.10695313 34.62023438 -17.08890625 35.86546875 -17.0703125 37.1484375 C-17.04710938 38.08945312 -17.02390625 39.03046875 -17 40 C-15.68 40.33 -14.36 40.66 -13 41 C-12.67 40.01 -12.34 39.02 -12 38 C-12 38.99 -12 39.98 -12 41 C-5.07 41 1.86 41 9 41 C9.95904856 44.83619425 9.91892116 46.32431536 9 50 C8.34 49.01 7.68 48.02 7 47 C4.38309243 46.58290642 4.38309243 46.58290642 1.3359375 46.70703125 C0.21445312 46.71669922 -0.90703125 46.72636719 -2.0625 46.73632812 C-3.238125 46.76146484 -4.41375 46.78660156 -5.625 46.8125 C-6.80835938 46.82603516 -7.99171875 46.83957031 -9.2109375 46.85351562 C-12.14107539 46.88896084 -15.07031459 46.93837231 -18 47 C-21.47130845 40.05738309 -19.99302247 27.42947402 -17.90625 20.22265625 C-13.82751153 11.7939866 -8.10377701 4.74367435 0 0 Z " fill="#9ED1EB" transform="translate(19,5)"/>
<path d="M0 0 C1.65 0.33 3.3 0.66 5 1 C4.34 2.65 3.68 4.3 3 6 C4.32 6 5.64 6 7 6 C7.33 6.66 7.66 7.32 8 8 C10.32206525 8.70491267 12.65593068 9.37212429 15 10 C16 11 16 11 16.0625 13.5625 C16.041875 14.366875 16.02125 15.17125 16 16 C8.37931034 16.29310345 8.37931034 16.29310345 5 14 C3.25 12.375 3.25 12.375 2 11 C1.67 12.65 1.34 14.3 1 16 C-1.875 16.1875 -1.875 16.1875 -5 16 C-7.08133467 12.877998 -7.2737822 12.06733011 -7.25 8.5 C-7.25773437 7.33984375 -7.25773437 7.33984375 -7.265625 6.15625 C-7 4 -7 4 -5 1 C-4.21625 1.165 -3.4325 1.33 -2.625 1.5 C-0.11791961 2.0623707 -0.11791961 2.0623707 2 2 C1.34 1.34 0.68 0.68 0 0 Z " fill="#1790CF" transform="translate(43,23)"/>
<path d="M0 0 C-3.01430136 3.61716164 -5.42710478 5.33056225 -9.875 6.9375 C-18.98606188 10.35752768 -23.8228648 16.31662198 -28 25 C-29.19376934 28.29408531 -30.17432187 31.59588843 -31 35 C-31.99 35 -32.98 35 -34 35 C-35.2474449 26.05007786 -32.3142787 20.10858313 -27 13 C-19.8015292 4.96480658 -11.05219013 -1.02335094 0 0 Z " fill="#0D8FD4" transform="translate(36,2)"/>
<path d="M0 0 C0.66 0.33 1.32 0.66 2 1 C1.3503125 1.56654297 1.3503125 1.56654297 0.6875 2.14453125 C-3.04962795 5.8384054 -4.45640291 8.42392586 -4.5625 13.75 C-4.52564095 17.62525772 -4.52564095 17.62525772 -2.4453125 20.72265625 C-1.72988281 21.35494141 -1.72988281 21.35494141 -1 22 C-1.3125 23.6875 -1.3125 23.6875 -2 26 C-2.13199822 30.02594574 -2.15562931 33.32560633 -1.25 37.25 C-0.87025095 42.94623572 -2.98386413 47.73035733 -5 53 C-5.99 53 -6.98 53 -8 53 C-7.45144652 48.428721 -6.58255197 44.32564205 -5 40 C-6.32 39.67 -7.64 39.34 -9 39 C-8.484375 38.525625 -7.96875 38.05125 -7.4375 37.5625 C-5.27942712 33.71550052 -6.01609206 30.20195271 -7 26 C-7.6236657 24.64601945 -8.27932207 23.30493124 -9 22 C-8.34 21.67 -7.68 21.34 -7 21 C-7.33 20.505 -7.66 20.01 -8 19.5 C-9.43865532 15.9033617 -9.91189653 12.74890798 -9 9 C-6.63049114 5.41789652 -3.88906125 1.94453062 0 0 Z " fill="#359BD1" transform="translate(36,2)"/>
<path d="M0 0 C0.99 0 1.98 0 3 0 C2.85879286 1.93784265 2.71187127 3.87526955 2.5625 5.8125 C2.48128906 6.89144531 2.40007813 7.97039063 2.31640625 9.08203125 C2 12 2 12 1 15 C7.14778871 16.6277833 12.64012196 17.20190089 19 17 C18.4225 16.319375 17.845 15.63875 17.25 14.9375 C11 6.77777778 11 6.77777778 11 3 C10.01 2.67 9.02 2.34 8 2 C8.99 1.67 9.98 1.34 11 1 C14.76109898 5.11408237 17.62962092 8.90368499 20 14 C20.66 14.66 21.32 15.32 22 16 C27.54900251 15.88901995 30.91564602 14.07963878 35.30078125 10.9609375 C35.86152344 10.64382812 36.42226563 10.32671875 37 10 C37.66 10.33 38.32 10.66 39 11 C31.86100165 17.24662355 25.74385369 19.65786617 16.3125 19.375 C15.48427734 19.37371094 14.65605469 19.37242188 13.80273438 19.37109375 C9.39132816 19.30751864 6.05114804 18.90187484 2 17 C-0.98181705 17.36143237 -3.36711392 18.58952532 -6 20 C-6 19.34 -6 18.68 -6 18 C-5.53980469 17.62230469 -5.07960938 17.24460937 -4.60546875 16.85546875 C-2.19490737 14.06954015 -1.91533095 10.84054345 -1.3125 7.3125 C-1.18294922 6.61060547 -1.05339844 5.90871094 -0.91992188 5.18554688 C-0.60278739 3.45892577 -0.29998203 1.72968365 0 0 Z " fill="#C5CED9" transform="translate(23,54)"/>
<path d="M0 0 C0 3.29792126 -0.74861253 5.25354754 -1.9375 8.3125 C-3.4011498 12.21211819 -4.54959015 15.83370885 -5 20 C-4.34 20 -3.68 20 -3 20 C-2.67 18.02 -2.34 16.04 -2 14 C0.64 14.66 3.28 15.32 6 16 C5.125 20.75 5.125 20.75 4 23 C2.63875 22.9690625 2.63875 22.9690625 1.25 22.9375 C-1.42672588 22.9889755 -3.46988052 23.2215017 -6 24 C-6 24.99 -6 25.98 -6 27 C-7.65 26.67 -9.3 26.34 -11 26 C-11 21.38 -11 16.76 -11 12 C-10.67 12 -10.34 12 -10 12 C-10 13.98 -10 15.96 -10 18 C-9.01 18 -8.02 18 -7 18 C-6.91363281 17.3709375 -6.82726562 16.741875 -6.73828125 16.09375 C-5.69437014 9.73451171 -3.80155764 5.19449479 0 0 Z " fill="#56B1E0" transform="translate(12,19)"/>
<path d="M0 0 C0.99 0 1.98 0 3 0 C2.58791189 5.25412337 1.82282913 8.28336057 -2 12 C-3.65730268 12.68961588 -5.32535173 13.35364453 -7 14 C-9.51515111 15.3322441 -12.01106972 16.69364023 -14.5 18.07421875 C-17.50905807 19.18851057 -18.99824046 19.08002497 -22 18 C-22.66 17.01 -23.32 16.02 -24 15 C-23.35933594 14.81824219 -22.71867187 14.63648437 -22.05859375 14.44921875 C-19.36149747 13.66541283 -16.68092586 12.83729796 -14 12 C-12.783125 11.62875 -11.56625 11.2575 -10.3125 10.875 C-6.20197342 8.54828684 -4.21250468 5.72252438 -1.578125 1.86328125 C-1.05734375 1.24839844 -0.5365625 0.63351563 0 0 Z " fill="#D9E4EF" transform="translate(66,52)"/>
<path d="M0 0 C0.66 0.66 1.32 1.32 2 2 C1.01 2.99 0.02 3.98 -1 5 C-0.01 5.33 0.98 5.66 2 6 C1.67 7.98 1.34 9.96 1 12 C0.34 11.67 -0.32 11.34 -1 11 C-2.59262066 10.84824451 -4.19064856 10.75099675 -5.7890625 10.68359375 C-6.73007812 10.64169922 -7.67109375 10.59980469 -8.640625 10.55664062 C-9.62546875 10.51732422 -10.6103125 10.47800781 -11.625 10.4375 C-12.61757813 10.39431641 -13.61015625 10.35113281 -14.6328125 10.30664062 C-17.08839838 10.20038931 -19.54408703 10.09835036 -22 10 C-22 9.01 -22 8.02 -22 7 C-19.42786866 5.38050989 -18.32330841 4.95591249 -15.25 5.375 C-14.5075 5.58125 -13.765 5.7875 -13 6 C-12.67 5.01 -12.34 4.02 -12 3 C-11.30132812 3.03480469 -10.60265625 3.06960937 -9.8828125 3.10546875 C-8.97273438 3.13253906 -8.06265625 3.15960938 -7.125 3.1875 C-6.22007813 3.22230469 -5.31515625 3.25710937 -4.3828125 3.29296875 C-3.59648437 3.19628906 -2.81015625 3.09960938 -2 3 C-1.34 2.01 -0.68 1.02 0 0 Z " fill="#6CB9E2" transform="translate(29,36)"/>
<path d="M0 0 C0.66 0.33 1.32 0.66 2 1 C2 1.66 2 2.32 2 3 C-0.31 2.67 -2.62 2.34 -5 2 C-5 3.32 -5 4.64 -5 6 C-3.88625 6.28875 -2.7725 6.5775 -1.625 6.875 C2 8 2 8 4 10 C4.125 13.625 4.125 13.625 4 17 C1.00519083 17.8723412 -1.63575911 18.10829766 -4.75 18.0625 C-5.54921875 18.05347656 -6.3484375 18.04445313 -7.171875 18.03515625 C-7.77515625 18.02355469 -8.3784375 18.01195313 -9 18 C-9 16.68 -9 15.36 -9 14 C-8.34 13.67 -7.68 13.34 -7 13 C-6.67 13.66 -6.34 14.32 -6 15 C-3.67843403 15.40729228 -1.3431213 15.74438677 1 16 C1.13440778 13.57080135 1.13440778 13.57080135 0 11 C-1.84527492 10.15278794 -1.84527492 10.15278794 -4 9.5625 C-6.1875 8.890625 -6.1875 8.890625 -8 8 C-9 4.8125 -9 4.8125 -9 2 C-5.54337669 -0.30441554 -4.05142119 -0.25860135 0 0 Z " fill="#E2EDF2" transform="translate(58,23)"/>
<path d="M0 0 C1.60488281 0.00676758 1.60488281 0.00676758 3.2421875 0.01367188 C5.86984986 0.02540251 8.49739538 0.04181772 11.125 0.0625 C10.795 2.7025 10.465 5.3425 10.125 8.0625 C9.465 7.0725 8.805 6.0825 8.125 5.0625 C5.50809243 4.64540642 5.50809243 4.64540642 2.4609375 4.76953125 C1.33945312 4.77919922 0.21796875 4.78886719 -0.9375 4.79882812 C-2.113125 4.82396484 -3.28875 4.84910156 -4.5 4.875 C-5.68335938 4.88853516 -6.86671875 4.90207031 -8.0859375 4.91601562 C-11.01607539 4.95146084 -13.94531459 5.00087231 -16.875 5.0625 C-17.205 3.7425 -17.535 2.4225 -17.875 1.0625 C-11.93872979 -0.24183619 -6.04167748 -0.04836318 0 0 Z " fill="#B1D5ED" transform="translate(17.875,46.9375)"/>
<path d="M0 0 C0.33 0.66 0.66 1.32 1 2 C0.22265625 3.9453125 0.22265625 3.9453125 -0.9375 6.125 C-1.31777344 6.84945313 -1.69804687 7.57390625 -2.08984375 8.3203125 C-2.54037109 9.15175781 -2.54037109 9.15175781 -3 10 C-1.35 8.68 0.3 7.36 2 6 C2.33 9.3 2.66 12.6 3 16 C-2.75 15.125 -2.75 15.125 -5 14 C-5.33 15.98 -5.66 17.96 -6 20 C-6.66 20 -7.32 20 -8 20 C-7.72738477 13.34818843 -6.93841591 7.54094377 -3 2 C-2.01 1.34 -1.02 0.68 0 0 Z " fill="#0C8FD3" transform="translate(15,19)"/>
<path d="M0 0 C3.16687885 0.22620563 4.03128136 1.03485637 6.1875 3.4375 C8.49282243 7.96865098 8.80151487 11.97832633 9 17 C7.02 17.33 5.04 17.66 3 18 C2.87625 17.030625 2.7525 16.06125 2.625 15.0625 C2.41875 14.051875 2.2125 13.04125 2 12 C1.34 11.67 0.68 11.34 0 11 C0.66 10.34 1.32 9.68 2 9 C2.34490322 4.94738713 2.30163882 3.45245824 0 0 Z " fill="#03689C" transform="translate(69,19)"/>
<path d="M0 0 C0.79622772 0.00141495 1.59245544 0.0028299 2.41281128 0.00428772 C4.9601413 0.0098928 7.50738397 0.02244611 10.0546875 0.03515625 C11.77994665 0.0401706 13.50520717 0.04473362 15.23046875 0.04882812 C19.46357541 0.05986388 23.69661664 0.07713189 27.9296875 0.09765625 C27.9296875 0.75765625 27.9296875 1.41765625 27.9296875 2.09765625 C26.6096875 2.09765625 25.2896875 2.09765625 23.9296875 2.09765625 C23.5996875 2.75765625 23.2696875 3.41765625 22.9296875 4.09765625 C22.9296875 3.43765625 22.9296875 2.77765625 22.9296875 2.09765625 C18.38779692 2.23698629 13.84624076 2.38526262 9.3046875 2.53515625 C7.37689453 2.59413086 7.37689453 2.59413086 5.41015625 2.65429688 C3.54423828 2.71713867 3.54423828 2.71713867 1.640625 2.78125 C0.49899902 2.81790771 -0.64262695 2.85456543 -1.81884766 2.89233398 C-4.9637053 3.09092426 -7.9744616 3.52154095 -11.0703125 4.09765625 C-10.7403125 3.10765625 -10.4103125 2.11765625 -10.0703125 1.09765625 C-6.89740537 -0.48879732 -3.48205866 -0.02312588 0 0 Z " fill="#94C9E8" transform="translate(43.0703125,45.90234375)"/>
<path d="M0 0 C0.66 0.33 1.32 0.66 2 1 C1.3503125 1.56654297 1.3503125 1.56654297 0.6875 2.14453125 C-3.0265571 5.81560158 -4.45606125 8.39394626 -4.5625 13.6875 C-4.47504811 17.80939912 -3.72681267 19.8950693 -1 23 C-4.25677898 22.73593684 -5.61989153 22.43253722 -7.8125 19.9375 C-9.3447681 16.14715261 -10.04493348 12.96203944 -9 9 C-6.6218546 5.42039573 -3.892151 1.9460755 0 0 Z " fill="#031620" transform="translate(36,2)"/>
<path d="M0 0 C5 1 5 1 6 2 C6.1245486 3.64230364 6.17568524 5.29052276 6.1875 6.9375 C6.20167969 7.83339844 6.21585938 8.72929688 6.23046875 9.65234375 C6 12 6 12 4 14 C2.68 14 1.36 14 0 14 C0 9.38 0 4.76 0 0 Z " fill="#1C91CE" transform="translate(21,25)"/>
<path d="M0 0 C1.42131189 0.24529092 2.84013562 0.5082344 4.25 0.8125 C3.26 2.2975 3.26 2.2975 2.25 3.8125 C1.59 3.1525 0.93 2.4925 0.25 1.8125 C-1.07 1.8125 -2.39 1.8125 -3.75 1.8125 C-4.93306728 4.17863456 -4.88354608 5.68030736 -4.875 8.3125 C-4.87757812 9.1065625 -4.88015625 9.900625 -4.8828125 10.71875 C-4.88277996 12.87168534 -4.88277996 12.87168534 -3.75 14.8125 C-0.72065509 15.47022428 -0.72065509 15.47022428 2.25 15.8125 C1.92 16.4725 1.59 17.1325 1.25 17.8125 C-1.5 18.125 -1.5 18.125 -4.75 17.8125 C-7.24369699 15.71254464 -8.49345547 14.11092946 -9.1328125 10.875 C-9.33783836 7.2665448 -8.86383571 5.05501955 -7.3125 1.75 C-4.31912039 -0.51328702 -3.59643372 -0.38512991 0 0 Z " fill="#E7EDF0" transform="translate(41.75,23.1875)"/>
<path d="M0 0 C0.33 0 0.66 0 1 0 C1 1.98 1 3.96 1 6 C8.54047904 7.07859862 8.54047904 7.07859862 16 6 C16.33 7.65 16.66 9.3 17 11 C14.03 10.505 14.03 10.505 11 10 C10.67 10.66 10.34 11.32 10 12 C10 11.01 10 10.02 10 9 C9.01 9 8.02 9 7 9 C7 9.66 7 10.32 7 11 C6.34 11 5.68 11 5 11 C5 10.34 5 9.68 5 9 C2.69 9 0.38 9 -2 9 C-1.34 6.03 -0.68 3.06 0 0 Z " fill="#4AA7D9" transform="translate(62,33)"/>
<path d="M0 0 C2 3 2 3 2 5 C5.96 5 9.92 5 14 5 C14 5.33 14 5.66 14 6 C16.97 6.495 16.97 6.495 20 7 C20 7.66 20 8.32 20 9 C11.92970447 9.11547323 4.02332397 8.90041311 -4 8 C-3.67 7.34 -3.34 6.68 -3 6 C-2.34 6 -1.68 6 -1 6 C-0.67 4.02 -0.34 2.04 0 0 Z " fill="#68B7E2" transform="translate(47,35)"/>
<path d="M0 0 C2.28062828 3.42094242 2.21925007 4.68187222 2.125 8.6875 C2.10695313 9.68136719 2.08890625 10.67523438 2.0703125 11.69921875 C2.04710938 12.45847656 2.02390625 13.21773437 2 14 C1.21625 13.979375 0.4325 13.95875 -0.375 13.9375 C-2.98114961 13.81315937 -2.98114961 13.81315937 -5 15 C-7.1640625 14.66015625 -7.1640625 14.66015625 -9.625 14.0625 C-10.44226563 13.86785156 -11.25953125 13.67320313 -12.1015625 13.47265625 C-12.72804688 13.31667969 -13.35453125 13.16070312 -14 13 C-14 11.35 -14 9.7 -14 8 C-13.67 8.66 -13.34 9.32 -13 10 C-8.38 10 -3.76 10 1 10 C0.67 6.7 0.34 3.4 0 0 Z " fill="#2A99D2" transform="translate(77,26)"/>
<path d="M0 0 C0.99 3.63 1.98 7.26 3 11 C-1.29 10.01 -5.58 9.02 -10 8 C-3.56521739 0 -3.56521739 0 0 0 Z " fill="#038BD1" transform="translate(27,14)"/>
<path d="M0 0 C0.99 0 1.98 0 3 0 C2.57834212 13.02922856 2.57834212 13.02922856 -2 18 C-4.25 19.375 -4.25 19.375 -6 20 C-6 19.34 -6 18.68 -6 18 C-5.53980469 17.62230469 -5.07960938 17.24460937 -4.60546875 16.85546875 C-2.19490737 14.06954015 -1.91533095 10.84054345 -1.3125 7.3125 C-1.18294922 6.61060547 -1.05339844 5.90871094 -0.91992188 5.18554688 C-0.60278739 3.45892577 -0.29998203 1.72968365 0 0 Z " fill="#35373A" transform="translate(23,54)"/>
<path d="M0 0 C0.33 0.99 0.66 1.98 1 3 C7.27 3 13.54 3 20 3 C19.67 4.32 19.34 5.64 19 7 C18.67 6.67 18.34 6.34 18 6 C16.44051458 5.84313751 14.87457332 5.74923361 13.30859375 5.68359375 C12.36435547 5.64169922 11.42011719 5.59980469 10.44726562 5.55664062 C9.45404297 5.51732422 8.46082031 5.47800781 7.4375 5.4375 C6.44041016 5.39431641 5.44332031 5.35113281 4.41601562 5.30664062 C1.9441585 5.20019702 -0.5278031 5.09818072 -3 5 C-3 4.01 -3 3.02 -3 2 C-2.01 1.34 -1.02 0.68 0 0 Z " fill="#7ABEE5" transform="translate(10,41)"/>
<path d="M0 0 C7.92 0 15.84 0 24 0 C24 0.99 24 1.98 24 3 C16.08 3 8.16 3 0 3 C0 2.01 0 1.02 0 0 Z " fill="#C9DFF0" transform="translate(2,51)"/>
<path d="M0 0 C1.04607422 0.22042969 1.04607422 0.22042969 2.11328125 0.4453125 C4.08089915 0.82339334 6.05903718 1.14954312 8.04296875 1.4296875 C9.08066406 1.57664062 10.11835937 1.72359375 11.1875 1.875 C12.75564453 2.08769531 12.75564453 2.08769531 14.35546875 2.3046875 C17 3 17 3 19 6 C12.02330843 6.39325819 6.48343811 5.63096039 0 3 C0 2.01 0 1.02 0 0 Z " fill="#DFE9F5" transform="translate(24,66)"/>
<path d="M0 0 C1.32 0 2.64 0 4 0 C3.67 2.64 3.34 5.28 3 8 C2.67 7.34 2.34 6.68 2 6 C-0.86724686 6.57344937 -1.8614515 6.8614515 -4 9 C-4 8.01 -4 7.02 -4 6 C-4.99 5.67 -5.98 5.34 -7 5 C-6.67 4.01 -6.34 3.02 -6 2 C-4.7934375 1.7834375 -4.7934375 1.7834375 -3.5625 1.5625 C-1.07896294 1.25864751 -1.07896294 1.25864751 0 0 Z " fill="#AED1E9" transform="translate(73,46)"/>
<path d="M0 0 C0.66 0.33 1.32 0.66 2 1 C1.35729017 6.9129304 -0.19003784 12.34244531 -2 18 C-2.99 18 -3.98 18 -5 18 C-4.42934122 11.58008874 -2.32655091 5.98410537 0 0 Z " fill="#161E23" transform="translate(33,37)"/>
<path d="M0 0 C1.31352023 0.30818356 2.62579572 0.62167665 3.9375 0.9375 C5.03384766 1.19853516 5.03384766 1.19853516 6.15234375 1.46484375 C8 2 8 2 9 3 C9.04063832 4.66617115 9.042721 6.33388095 9 8 C2.375 8.25 2.375 8.25 -1 6 C-1 5.34 -1 4.68 -1 4 C-0.01 3.67 0.98 3.34 2 3 C1.34 2.67 0.68 2.34 0 2 C0 1.34 0 0.68 0 0 Z " fill="#58B1DF" transform="translate(50,31)"/>
<path d="M0 0 C3.33300679 0.24688939 4.19656928 1.20615802 6.5625 3.6875 C8.84629438 6.59098248 10.34943079 9.69886159 12 13 C14.06167261 15.31418291 14.06167261 15.31418291 16 17 C12.67052107 16.72254342 11.29937362 16.30844554 8.9375 13.875 C3 5.06451613 3 5.06451613 3 2 C2.01 1.67 1.02 1.34 0 1 C0 0.67 0 0.34 0 0 Z " fill="#242628" transform="translate(31,55)"/>
<path d="M0 0 C0.66 0.33 1.32 0.66 2 1 C2 3.31 2 5.62 2 8 C3.32 8.33 4.64 8.66 6 9 C6.33 10.32 6.66 11.64 7 13 C4.125 13.1875 4.125 13.1875 1 13 C-1.11295256 9.83057116 -1.25250929 9.00370047 -1.1875 5.375 C-1.17783203 4.18003906 -1.17783203 4.18003906 -1.16796875 2.9609375 C-1 1 -1 1 0 0 Z " fill="#329BD1" transform="translate(37,26)"/>
<path d="M0 0 C0.33 0 0.66 0 1 0 C1.33 3.3 1.66 6.6 2 10 C-1.73487777 9.5020163 -3.81237635 9.12508244 -7 7 C-7 6.34 -7 5.68 -7 5 C-6.21625 4.731875 -5.4325 4.46375 -4.625 4.1875 C-1.71885077 3.15185568 -1.71885077 3.15185568 0 0 Z " fill="#0388CE" transform="translate(16,25)"/>
<path d="M0 0 C2.31 0.33 4.62 0.66 7 1 C6.67 3.31 6.34 5.62 6 8 C3.11562221 6.70700306 1.12780579 5.34058637 -1 3 C-0.67 2.01 -0.34 1.02 0 0 Z " fill="#DDE9F5" transform="translate(16,53)"/>
<path d="M0 0 C0.33 0 0.66 0 1 0 C1 2.31 1 4.62 1 7 C-1.99480917 7.8723412 -4.63575911 8.10829766 -7.75 8.0625 C-8.54921875 8.05347656 -9.3484375 8.04445313 -10.171875 8.03515625 C-10.77515625 8.02355469 -11.3784375 8.01195312 -12 8 C-12 6.68 -12 5.36 -12 4 C-11.34 3.67 -10.68 3.34 -10 3 C-9.67 3.66 -9.34 4.32 -9 5 C-6.67843403 5.40729228 -4.3431213 5.74438677 -2 6 C-1.855625 5.38125 -1.71125 4.7625 -1.5625 4.125 C-1 2 -1 2 0 0 Z " fill="#AED9EE" transform="translate(61,33)"/>
<path d="M0 0 C1.32 0 2.64 0 4 0 C3.67 1.65 3.34 3.3 3 5 C0.69 5 -1.62 5 -4 5 C-4.33 5.66 -4.66 6.32 -5 7 C-5.66 5.68 -6.32 4.36 -7 3 C-6.34 2.34 -5.68 1.68 -5 1 C-2.38419521 1.3269756 -0.35921863 1.82039068 2 3 C2 2.34 2 1.68 2 1 C1.34 0.67 0.68 0.34 0 0 Z " fill="#48A7D9" transform="translate(58,23)"/>
<path d="M0 0 C2.31 0.66 4.62 1.32 7 2 C6.67 3.65 6.34 5.3 6 7 C4.02 7 2.04 7 0 7 C0 4.69 0 2.38 0 0 Z " fill="#1F96D4" transform="translate(11,33)"/>
<path d="M0 0 C0 0.33 0 0.66 0 1 C-1.65 1.33 -3.3 1.66 -5 2 C-5 4.97 -5 7.94 -5 11 C-5.33 11 -5.66 11 -6 11 C-6.33 8.69 -6.66 6.38 -7 4 C-7.99 5.485 -7.99 5.485 -9 7 C-9.66 7 -10.32 7 -11 7 C-11.33 7.66 -11.66 8.32 -12 9 C-11.66466723 5.98200506 -11.13434402 4.19118187 -9.375 1.6875 C-6.16715428 -0.5917588 -3.84279789 -0.29559984 0 0 Z " fill="#2D9DD9" transform="translate(23,22)"/>
<path d="M0 0 C0.33 0 0.66 0 1 0 C1 2.31 1 4.62 1 7 C1.99 7.33 2.98 7.66 4 8 C4.33 8.66 4.66 9.32 5 10 C8.02934491 10.65772428 8.02934491 10.65772428 11 11 C10.67 11.66 10.34 12.32 10 13 C7.25 13.3125 7.25 13.3125 4 13 C1.43198901 10.83746443 0.14644024 9.2778092 -0.2421875 5.88671875 C-0.24916401 3.92283161 -0.13284079 1.95940162 0 0 Z " fill="#D0E6EF" transform="translate(33,28)"/>
<path d="M0 0 C0.66 0 1.32 0 2 0 C2.36 7.2 2.36 7.2 0.875 10.5 C-1.75881415 12.60705132 -3.72611257 12.29101222 -7 12 C-6.38125 11.731875 -5.7625 11.46375 -5.125 11.1875 C-2.7004767 10.04443152 -2.7004767 10.04443152 -1 7 C-0.60612212 4.67612053 -0.26513915 2.34206251 0 0 Z " fill="#EAF5F9" transform="translate(28,28)"/>
<path d="M0 0 C0.33 0 0.66 0 1 0 C1.34934248 2.93447681 1.51495218 5.14367502 -0.04296875 7.734375 C-1.375 9.375 -1.375 9.375 -4 12 C-4.66 12 -5.32 12 -6 12 C-6 11.34 -6 10.68 -6 10 C-5.319375 9.38125 -5.319375 9.38125 -4.625 8.75 C-2.46283705 6.42151682 -1.91542331 4.00781944 -1 1 C-0.67 0.67 -0.34 0.34 0 0 Z " fill="#242526" transform="translate(23,62)"/>
<path d="M0 0 C2 3 2 3 2 5 C4.475 5.99 4.475 5.99 7 7 C7 7.33 7 7.66 7 8 C3.37 8 -0.26 8 -4 8 C-3.67 7.34 -3.34 6.68 -3 6 C-2.34 6 -1.68 6 -1 6 C-0.67 4.02 -0.34 2.04 0 0 Z " fill="#4DABDE" transform="translate(47,35)"/>
<path d="M0 0 C7.03812317 -0.35190616 7.03812317 -0.35190616 10.5625 0.9375 C12.70307315 4.00875713 11.93097434 6.55279091 11.359375 10.13671875 C11.24078125 10.75160156 11.1221875 11.36648437 11 12 C10.67 12 10.34 12 10 12 C9.67 9.36 9.34 6.72 9 4 C6.03 3.01 3.06 2.02 0 1 C0 0.67 0 0.34 0 0 Z " fill="#BCE0F1" transform="translate(17,23)"/>
<path d="M0 0 C0.33 0 0.66 0 1 0 C1 1.98 1 3.96 1 6 C1.99 6 2.98 6 4 6 C4.33 5.01 4.66 4.02 5 3 C4.67 5.31 4.34 7.62 4 10 C2.68 9.67 1.36 9.34 0 9 C0 6.03 0 3.06 0 0 Z " fill="#36A3DB" transform="translate(1,31)"/>
<path d="M0 0 C5.97031739 0.29123499 8.894534 3.02814384 13 7 C12.01 7.33 11.02 7.66 10 8 C9.46375 7.401875 8.9275 6.80375 8.375 6.1875 C5.76857355 3.78684406 3.2115927 2.45981486 0 1 C0 0.67 0 0.34 0 0 Z " fill="#4CACDA" transform="translate(55,4)"/>
<path d="M0 0 C0.66 0.33 1.32 0.66 2 1 C-1.96 2.98 -5.92 4.96 -10 7 C-10.66 6.01 -11.32 5.02 -12 4 C-11.30132812 3.79503906 -10.60265625 3.59007813 -9.8828125 3.37890625 C-8.97273438 3.10949219 -8.06265625 2.84007813 -7.125 2.5625 C-6.22007813 2.29566406 -5.31515625 2.02882813 -4.3828125 1.75390625 C-2.01724619 1.07386174 -2.01724619 1.07386174 0 0 Z " fill="#C6CFD9" transform="translate(54,63)"/>
<path d="M0 0 C3.71824156 1.23941385 4.67378745 2.9233963 7 6 C7.66 6.66 8.32 7.32 9 8 C5.41209425 7.70100785 4.21833224 7.23013399 1.6875 4.5625 C0 2 0 2 0 0 Z " fill="#1B1C1D" transform="translate(38,64)"/>
<path d="M0 0 C0.66 0 1.32 0 2 0 C1.67 2.31 1.34 4.62 1 7 C-1.31 7.33 -3.62 7.66 -6 8 C-5.38125 7.79375 -4.7625 7.5875 -4.125 7.375 C-1.15346355 5.45224112 -0.86975341 3.33405473 0 0 Z " fill="#89C8E7" transform="translate(45,34)"/>
<path d="M0 0 C1.65 0 3.3 0 5 0 C5 1.32 5 2.64 5 4 C3.35 4 1.7 4 0 4 C-0.33 3.34 -0.66 2.68 -1 2 C-0.67 1.34 -0.34 0.68 0 0 Z " fill="#1B97D7" transform="translate(54,35)"/>
<path d="M0 0 C0.556875 0.226875 1.11375 0.45375 1.6875 0.6875 C-0.2925 2.0075 -2.2725 3.3275 -4.3125 4.6875 C-5.3025 4.0275 -6.2925 3.3675 -7.3125 2.6875 C-2.88173077 -0.38942308 -2.88173077 -0.38942308 0 0 Z " fill="#0080C4" transform="translate(34.3125,2.3125)"/>
<path d="M0 0 C0.66 0.33 1.32 0.66 2 1 C1.25 6.75 1.25 6.75 -1 9 C-1.09765625 2.84765625 -1.09765625 2.84765625 -1 1 C-0.67 0.67 -0.34 0.34 0 0 Z " fill="#3C4A52" transform="translate(37,26)"/>
<path d="M0 0 C0.33 0.66 0.66 1.32 1 2 C0.67 2.99 0.34 3.98 0 5 C-1.65 4.67 -3.3 4.34 -5 4 C-4.67 3.01 -4.34 2.02 -4 1 C-1.9375 0.3125 -1.9375 0.3125 0 0 Z " fill="#73BCE4" transform="translate(6,41)"/>
<path d="M0 0 C3.45925163 1.2491742 6.14693203 2.67527795 9 5 C5.26512223 4.5020163 3.18762365 4.12508244 0 2 C0 1.34 0 0.68 0 0 Z " fill="#052537" transform="translate(9,30)"/>
<path d="M0 0 C-0.8125 1.9375 -0.8125 1.9375 -2 4 C-2.99 4.33 -3.98 4.66 -5 5 C-5.66 4.34 -6.32 3.68 -7 3 C-2.25 0 -2.25 0 0 0 Z " fill="#0E8FD5" transform="translate(28,9)"/>
</svg>
