
<svg xmlns="http://www.w3.org/2000/svg" width="105" height="105" viewBox="0 0 105 105">
  <g id="services-icon1" transform="translate(-516 -1157)">
    <circle id="Ellipse_1" data-name="Ellipse 1" cx="52.5" cy="52.5" r="52.5" transform="translate(516 1157)" fill="#6785ff"/>
    <g id="tshirt" transform="translate(543.179 1181.538)">
      <g id="Group_1" data-name="Group 1" transform="translate(0 0)">
       <path fill="#fff" stroke="currentColor" transform="translate(-221.67 -87.662)" stroke-linecap="round" stroke-linejoin="round" stroke-width="2" d="M22 16.92v3a2 2 0 0 1-2.18 2a19.8 19.8 0 0 1-8.63-3.07a19.5 19.5 0 0 1-6-6a19.8 19.8 0 0 1-3.07-8.67A2 2 0 0 1 4.11 2h3a2 2 0 0 1 2 1.72a12.8 12.8 0 0 0 .7 2.81a2 2 0 0 1-.45 2.11L8.09 9.91a16 16 0 0 0 6 6l1.27-1.27a2 2 0 0 1 2.11-.45a12.8 12.8 0 0 0 2.81.7A2 2 0 0 1 22 16.92M14.05 2a9 9 0 0 1 8 7.94m-8-3.94A5 5 0 0 1 18 10"/>
      </g>
    </g>
  </g>
</svg>
